<svg width="128" height="136" viewBox="0 0 128 136" fill="none" xmlns="http://www.w3.org/2000/svg">
<path fill-rule="evenodd" clip-rule="evenodd" d="M64 128C112.262 128 128 99.3462 128 64C128 28.6538 112.262 0 64 0C15.7377 0 0 28.6538 0 64C0 99.3462 15.7377 128 64 128Z" fill="#FFE8F2"/>
<mask id="mask0_719_228" style="mask-type:alpha" maskUnits="userSpaceOnUse" x="25" y="18" width="76" height="74">
<rect x="25.3164" y="18" width="75.6832" height="73.3663" fill="white"/>
</mask>
<g mask="url(#mask0_719_228)">
<ellipse cx="51.5777" cy="68.4069" rx="6.90691" ry="6.90112" transform="rotate(37 51.5777 68.4069)" stroke="#FD9CBF" stroke-width="3.57268"/>
<path fill-rule="evenodd" clip-rule="evenodd" d="M39.699 53.7134C39.368 51.3578 41.0092 49.1799 43.3648 48.8488C45.7204 48.5177 47.8984 50.159 48.2295 52.5146L52.8461 85.3632C53.1771 87.7188 51.5359 89.8968 49.1803 90.2279C46.8247 90.5589 44.6467 88.9177 44.3156 86.5621L39.699 53.7134Z" fill="#2A2A2A"/>
<path fill-rule="evenodd" clip-rule="evenodd" d="M87.4821 19.9712C87.4821 19.9712 80.7067 28.5275 70.5343 34.3832C60.3619 40.2388 48.0973 42.6427 48.0973 42.6427L30.5214 45.5704C27.6717 46.0452 25.7111 48.6934 26.089 51.5576L28.0032 66.0659C28.3796 68.9189 30.9421 70.9653 33.8078 70.7014L51.5345 69.0683C51.5345 69.0683 62.0593 67.0474 74.1269 69.868C86.1945 72.6887 97.3881 79.7859 97.3881 79.7859L87.4821 19.9712Z" fill="white"/>
<mask id="mask1_719_228" style="mask-type:alpha" maskUnits="userSpaceOnUse" x="26" y="19" width="72" height="61">
<path fill-rule="evenodd" clip-rule="evenodd" d="M87.4821 19.9712C87.4821 19.9712 80.7067 28.5275 70.5343 34.3832C60.3619 40.2388 48.0973 42.6427 48.0973 42.6427L30.5214 45.5704C27.6717 46.0452 25.7111 48.6934 26.089 51.5576L28.0032 66.0659C28.3796 68.9189 30.9421 70.9653 33.8078 70.7014L51.5345 69.0683C51.5345 69.0683 62.0593 67.0474 74.1269 69.868C86.1945 72.6887 97.3881 79.7859 97.3881 79.7859L87.4821 19.9712Z" fill="white"/>
</mask>
<g mask="url(#mask1_719_228)">
<path fill-rule="evenodd" clip-rule="evenodd" d="M46.4396 40.4524L51.2565 75.256L23.3997 76.1333L15.2136 45.0715L27.816 32.7946L46.4396 40.4524Z" fill="#FD9CBF"/>
<mask id="mask2_719_228" style="mask-type:alpha" maskUnits="userSpaceOnUse" x="15" y="32" width="37" height="45">
<path fill-rule="evenodd" clip-rule="evenodd" d="M46.4396 40.4524L51.2565 75.256L23.3997 76.1333L15.2136 45.0715L27.816 32.7946L46.4396 40.4524Z" fill="white"/>
</mask>
<g mask="url(#mask2_719_228)">
</g>
</g>
<rect x="82.585" y="20.4751" width="9.05357" height="60.8627" rx="4.52679" transform="rotate(-8 82.585 20.4751)" fill="#2A2A2A"/>
<rect x="31.9004" y="52.7202" width="6.26786" height="2.78571" rx="1.39286" transform="rotate(-8 31.9004 52.7202)" fill="white"/>
</g>
<path fill-rule="evenodd" clip-rule="evenodd" d="M64 136C76.0656 136 80 128.837 80 120C80 111.163 76.0656 104 64 104C51.9344 104 48 111.163 48 120C48 128.837 51.9344 136 64 136Z" fill="#F34986"/>
<path d="M63.297 127H66.352V112.623H66.1228L60.1465 114.952V118.026L63.297 116.747V127Z" fill="white"/>
</svg>
