<svg width="128" height="136" viewBox="0 0 128 136" fill="none" xmlns="http://www.w3.org/2000/svg">
<path fill-rule="evenodd" clip-rule="evenodd" d="M64 128C112.262 128 128 99.3462 128 64C128 28.6538 112.262 0 64 0C15.7377 0 0 28.6538 0 64C0 99.3462 15.7377 128 64 128Z" fill="#FFE8F2"/>
<path fill-rule="evenodd" clip-rule="evenodd" d="M68.1683 33.2284C74.2213 28.1683 78.2659 16.7686 75.7769 16.27C72.4696 15.6073 65.2878 18.5133 61.8165 19.0253C56.893 19.6169 51.5307 13.7124 48.5208 17.0036C46.0734 19.6795 50.2753 29.411 56.8492 33.6506C37.2363 43.2431 9.66901 91.3985 57.7616 94.8926C124.306 99.7275 90.9848 42.5761 68.1683 33.2284Z" fill="#FD9CBF"/>
<path d="M67.945 31.7257C69.07 31.4328 70.2195 32.1075 70.5123 33.2326C70.8052 34.3577 70.1305 35.5071 69.0054 35.8C67.1296 36.2882 64.597 36.521 61.369 36.521C58.0597 36.521 55.7615 36.2825 54.3192 35.7274C53.2342 35.3098 52.6932 34.0917 53.1108 33.0067C53.514 31.9591 54.6634 31.4186 55.7188 31.7585L55.8314 31.7983C56.6517 32.114 58.5494 32.3109 61.369 32.3109L62.0519 32.307C64.6182 32.2773 66.5925 32.0777 67.945 31.7257Z" fill="#2A2A2A"/>
<path fill-rule="evenodd" clip-rule="evenodd" d="M72.0484 69.2172C72.0484 72.8426 69.5234 75.736 65.6308 76.7121V79.5357H61.0719V76.9561C58.6522 76.7121 56.513 75.8754 55.1453 74.9691V69.1126C56.7585 70.8556 59.6341 72.0409 62.124 72.0409C64.5788 72.0409 66.2621 70.9602 66.2621 69.2521C66.2621 67.5439 64.5086 66.777 62.0889 65.9752C58.547 64.7552 55.0752 63.1516 55.0752 58.5501C55.0752 55.1687 57.4248 52.4496 61.0719 51.5084V48.6499H65.6308V51.2295C67.4544 51.4387 69.2779 52.0313 70.5404 52.7285V58.2015C69.1377 57.1208 66.6829 56.1448 64.4034 56.1448C62.159 56.1448 60.8264 57.2254 60.8264 58.5501C60.8264 60.1188 62.6149 60.8509 64.8593 61.6178C68.4363 62.8379 72.0484 64.4414 72.0484 69.2172Z" fill="white"/>
<path fill-rule="evenodd" clip-rule="evenodd" d="M64 136C76.0656 136 80 128.837 80 120C80 111.163 76.0656 104 64 104C51.9344 104 48 111.163 48 120C48 128.837 51.9344 136 64 136Z" fill="#F34986"/>
<path d="M59.6126 113.692V116.499C60.3954 115.735 61.5792 115.181 62.9731 115.181C64.5006 115.181 65.3025 115.926 65.3025 116.861C65.3025 117.835 64.4815 118.58 62.6485 118.58H61.1783V120.947H62.9731C64.7488 120.947 65.6462 121.692 65.6462 122.723C65.6462 123.831 64.5388 124.556 62.9922 124.556C61.5029 124.556 60.2427 123.945 59.3262 122.971V126.007C60.4718 126.886 61.9229 127.325 63.4886 127.325C66.9255 127.325 68.7776 125.244 68.7776 123.067C68.7776 121.31 67.6701 120.107 66.3718 119.611V119.554C67.5938 118.924 68.3384 117.797 68.3384 116.365C68.3384 114.284 66.6582 112.432 63.5459 112.432C61.9229 112.432 60.5291 112.947 59.6126 113.692Z" fill="white"/>
</svg>
