<svg width="128" height="136" viewBox="0 0 128 136" fill="none" xmlns="http://www.w3.org/2000/svg">
<path fill-rule="evenodd" clip-rule="evenodd" d="M64 128C112.262 128 128 99.3462 128 64C128 28.6538 112.262 0 64 0C15.7377 0 0 28.6538 0 64C0 99.3462 15.7377 128 64 128Z" fill="#FFE8F2"/>
<path fill-rule="evenodd" clip-rule="evenodd" d="M21 29.1885C21 27.9798 21.9798 27 23.1885 27H104.177C105.386 27 106.365 27.9798 106.365 29.1885V80.0246C106.365 81.2333 105.386 82.2131 104.177 82.2131H23.1885C21.9798 82.2131 21 81.2333 21 80.0246V29.1885Z" fill="#A9A9A9"/>
<mask id="mask0_733_225" style="mask-type:alpha" maskUnits="userSpaceOnUse" x="21" y="27" width="86" height="56">
<path fill-rule="evenodd" clip-rule="evenodd" d="M21 29.1885C21 27.9798 21.9798 27 23.1885 27H104.177C105.386 27 106.365 27.9798 106.365 29.1885V80.0246C106.365 81.2333 105.386 82.2131 104.177 82.2131H23.1885C21.9798 82.2131 21 81.2333 21 80.0246V29.1885Z" fill="white"/>
</mask>
<g mask="url(#mask0_733_225)">
<rect x="21" y="27" width="85.3654" height="46.5597" fill="#2A2A2A"/>
</g>
<path fill-rule="evenodd" clip-rule="evenodd" d="M55.4682 82.2134H72.8583L75.1206 93.4191H53.2588L55.4682 82.2134Z" fill="#767676"/>
<mask id="mask1_733_225" style="mask-type:alpha" maskUnits="userSpaceOnUse" x="53" y="82" width="23" height="12">
<path fill-rule="evenodd" clip-rule="evenodd" d="M55.4682 82.2134H72.8583L75.1206 93.4191H53.2588L55.4682 82.2134Z" fill="white"/>
</mask>
<g mask="url(#mask1_733_225)">
</g>
<path fill-rule="evenodd" clip-rule="evenodd" d="M40.6992 93.6486C40.6992 92.3498 41.7521 91.2969 43.0509 91.2969H83.9305C85.2293 91.2969 86.2822 92.3498 86.2822 93.6486C86.2822 94.9474 85.2293 96.0002 83.9305 96.0002H43.0509C41.7521 96.0002 40.6992 94.9474 40.6992 93.6486Z" fill="#A9A9A9"/>
<path fill-rule="evenodd" clip-rule="evenodd" d="M23.2764 29.2803H104.476V71.4223H23.2764V29.2803Z" fill="white"/>
<mask id="mask2_733_225" style="mask-type:alpha" maskUnits="userSpaceOnUse" x="23" y="29" width="82" height="43">
<path fill-rule="evenodd" clip-rule="evenodd" d="M23.2764 29.2803H104.476V71.4223H23.2764V29.2803Z" fill="white"/>
</mask>
<g mask="url(#mask2_733_225)">
</g>
<path fill-rule="evenodd" clip-rule="evenodd" d="M51.7326 47.2833C51.7343 47.3827 51.7376 47.4816 51.7375 47.5801C51.993 52.425 56.0811 57.348 64.0018 62.349C71.742 56.4665 75.6205 51.3972 75.6323 47.1412C75.6341 47.0427 75.6342 46.9437 75.6326 46.8443C75.5646 42.746 72.5653 39.4777 68.9335 39.5445C66.7134 39.5852 64.7709 40.8627 63.6116 42.7859C62.3894 40.9065 60.4057 39.7011 58.1856 39.7419C54.5537 39.8086 51.6646 43.185 51.7326 47.2833Z" fill="#FD9CBF"/>
<path fill-rule="evenodd" clip-rule="evenodd" d="M64 136C76.0656 136 80 128.837 80 120C80 111.163 76.0656 104 64 104C51.9344 104 48 111.163 48 120C48 128.837 51.9344 136 64 136Z" fill="#F34986"/>
<path d="M58.5859 127H69.0111V124.212H64.1804C66.7772 121.406 68.4192 119.324 68.4192 117.224C68.4192 114.417 66.4144 112.432 63.3403 112.432C61.7555 112.432 60.2662 113.024 59.3879 113.787V116.9C60.1898 116.002 61.4309 115.296 62.7866 115.296C64.2759 115.296 65.2115 116.308 65.2115 117.549C65.2115 118.981 64.6578 119.955 58.5859 127Z" fill="white"/>
</svg>
