<?xml version="1.0" encoding="utf-8"?>
<!-- Generator: Adobe Illustrator 26.3.1, SVG Export Plug-In . SVG Version: 6.00 Build 0)  -->
<svg version="1.1" id="Layer_1" xmlns="http://www.w3.org/2000/svg" xmlns:xlink="http://www.w3.org/1999/xlink" x="0px" y="0px"
	 viewBox="0 0 19 20" style="enable-background:new 0 0 19 20;" xml:space="preserve">
<style type="text/css">
	.st0{fill:#0099FF;}
</style>
<g transform="matrix(1, 0, 0, 1, 0, 0)">
	<path class="st0" d="M13.9,2.4c-3.2-3.2-8.4-3.2-11.6,0c-3.2,3.2-3.2,8.4,0,11.6c2.8,2.8,7.2,3.2,10.5,0.9c0,0.1,0.1,0.1,0.1,0.1
		l3.6,3.6c0.5,0.5,1.4,0.5,2,0s0.5-1.4,0-2L15,13c0,0-0.1-0.1-0.1-0.1C17.1,9.6,16.8,5.2,13.9,2.4z M13,13c-2.7,2.7-7,2.7-9.6,0
		s-2.7-7,0-9.6c2.7-2.7,7-2.7,9.6,0c0,0,0,0,0,0C15.6,6,15.6,10.3,13,13L13,13z"/>
</g>
</svg>
