<svg id="icon-success" xmlns="http://www.w3.org/2000/svg" xmlns:xlink="http://www.w3.org/1999/xlink" width="64" height="64" viewBox="0 0 64 64">
  <defs>
    <linearGradient id="linear-gradient" x1="0.369" y1="0.238" x2="0.13" y2="0.861" gradientUnits="objectBoundingBox">
      <stop offset="0" stop-color="#fff"/>
      <stop offset="1" stop-color="#ebebeb"/>
    </linearGradient>
  </defs>
  <path id="Ellipse_18" data-name="Ellipse 18" d="M32,0A32,32,0,1,1,0,32,32,32,0,0,1,32,0Z" fill="url(#linear-gradient)"/>
  <path id="Ellipse_18_-_Outline" data-name="Ellipse 18 - Outline" d="M32,4A28.008,28.008,0,0,0,21.1,57.8,28.008,28.008,0,0,0,42.9,6.2,27.821,27.821,0,0,0,32,4m0-4A32,32,0,1,1,0,32,32,32,0,0,1,32,0Z" fill="#09f"/>
  <g id="check" transform="translate(-456.798 -355.419)">
    <rect id="Rectangle_126" data-name="Rectangle 126" width="3.805" height="30.439" rx="1.902" transform="translate(502.923 376) rotate(45)" fill="#09f"/>
    <rect id="Rectangle_128" data-name="Rectangle 128" width="4" height="17.219" rx="2" transform="translate(486.988 397.454) rotate(135)" fill="#09f"/>
  </g>
</svg>
