<svg id="icon-4k" xmlns="http://www.w3.org/2000/svg" width="16" height="16" viewBox="0 0 16 16">
  <rect id="Rectangle_143" data-name="Rectangle 143" width="16" height="16" transform="translate(0)" fill="#fff" opacity="0"/>
  <path id="Path_105" data-name="Path 105" d="M3018.453,1467.823v11.75a.724.724,0,0,1-.791.512q-7.211-.01-14.422,0c-.068,0-.135,0-.2-.005a.608.608,0,0,1-.55-.437,1.088,1.088,0,0,1-.033-.293q0-5.648,0-11.3c0-.052,0-.1,0-.156a.629.629,0,0,1,.488-.562,1.509,1.509,0,0,1,.3-.016q7.21,0,14.422,0A.724.724,0,0,1,3018.453,1467.823Zm-14.721,6.572h13.438v-5.8h-13.438Zm8.346,1.3v2.393h.6v-.914h1v.913h.6v-2.393h-.6v.968h-1v-.967Zm3.3,1.911v-.891h-.6v1.383c.231,0,.45.01.667,0a4.643,4.643,0,0,0,.817-.085,1.094,1.094,0,0,0,.809-.966,1.146,1.146,0,0,0-.631-1.216,4.6,4.6,0,0,0-1.664-.149v.491c.12,0,.229,0,.338,0a6.925,6.925,0,0,1,.825.028c.357.051.55.383.51.808a.63.63,0,0,1-.626.6C3015.689,1477.608,3015.549,1477.6,3015.381,1477.6Zm-9.433-1.912-.008.659.018,1a.792.792,0,0,0,.706.729.972.972,0,0,0,1.285-.989c0-.3,0-.593,0-.889v-.5h-.278v.183c0,.416.005.832,0,1.248a.733.733,0,0,1-1.466,0c-.008-.421,0-.843,0-1.264,0-.056,0-.111,0-.175Zm-.384,0h-1.512v2.393h.262v-1.027h1.116v-.275h-1.107v-.841h1.24Zm3.069,0v2.393h1.314v-.261h-1.058v-2.132Zm1.781,0v2.393h1.314v-.261h-1.058v-2.132Z" transform="translate(-3002.453 -1465.698)"/>
  <path id="Path_107" data-name="Path 107" d="M3141.872,1588.723h.592v.967h1v-.968h.6v2.393h-.6v-.913h-1v.914h-.6Z" transform="translate(-3132.247 -1578.728)" fill="#fff"/>
  <path id="Path_108" data-name="Path 108" d="M3181.614,1590.437c.168,0,.308,0,.448,0a.63.63,0,0,0,.625-.6c.04-.425-.153-.757-.51-.808a6.949,6.949,0,0,0-.825-.028c-.109,0-.218,0-.339,0v-.491a4.6,4.6,0,0,1,1.664.149,1.146,1.146,0,0,1,.632,1.216,1.094,1.094,0,0,1-.809.966,4.652,4.652,0,0,1-.817.085c-.218.013-.436,0-.667,0v-1.383h.6Z" transform="translate(-3168.686 -1578.531)" fill="#fff"/>
  <path id="Path_109" data-name="Path 109" d="M3052.936,1588.729h.252c0,.064,0,.12,0,.176,0,.421,0,.843,0,1.264a.733.733,0,0,0,1.466,0c.008-.416,0-.832,0-1.249,0-.057,0-.113,0-.183h.278v.5c0,.3,0,.593,0,.889a.973.973,0,0,1-1.285.989.793.793,0,0,1-.706-.729C3052.906,1589.838,3052.936,1589.286,3052.936,1588.729Z" transform="translate(-3049.44 -1578.734)" fill="#fff"/>
  <path id="Path_110" data-name="Path 110" d="M3027.139,1588.774v.251H3025.9v.841h1.107v.274h-1.116v1.028h-.262v-2.393Z" transform="translate(-3024.027 -1578.776)" fill="#fff"/>
  <path id="Path_111" data-name="Path 111" d="M3091.978,1588.741h.256v2.132h1.058v.261h-1.314Z" transform="translate(-3085.797 -1578.745)" fill="#fff"/>
  <path id="Path_112" data-name="Path 112" d="M3117.78,1588.741h.256v2.132h1.058v.261h-1.314Z" transform="translate(-3109.818 -1578.745)" fill="#fff"/>
  <path id="Path_113" data-name="Path 113" d="M3119.7,1493.632h1.119v1.878l.034.018.1-.109c.5-.566,1-1.133,1.5-1.694a.322.322,0,0,1,.208-.1c.383-.009.766,0,1.191,0l-1.658,1.851,1.77,2.622h-.205c-.323,0-.646-.006-.968,0a.292.292,0,0,1-.291-.15c-.32-.493-.653-.978-.981-1.465-.029-.043-.059-.084-.1-.144-.194.215-.383.419-.565.631a.249.249,0,0,0-.027.147c0,.321,0,.642,0,.97H3119.7Z" transform="translate(-3111.604 -1490.194)"/>
  <path id="Path_114" data-name="Path 114" d="M3056.956,1497.089a2.044,2.044,0,0,1,.187-1.156c.41-.717.771-1.463,1.146-2.2a.213.213,0,0,1,.227-.136c.3.008.6,0,.937,0l-1.321,2.615h.934v-.94h1.056v.946h.6v.857h-.589v.982h-1.054v-.972Z" transform="translate(-3053.188 -1490.171)"/>
</svg>
