<svg id="icon-search" xmlns="http://www.w3.org/2000/svg" width="16" height="16" viewBox="0 0 16 16">
  <path id="icon-search-2" data-name="icon-search" d="M278.869,139.462a6.884,6.884,0,0,0-9.736,9.735,7,7,0,0,0,6.053,1.91,6.574,6.574,0,0,0,2.778-1.15,1.209,1.209,0,0,0,.107.125l3.021,3.021a1.183,1.183,0,1,0,1.673-1.673l-3.021-3.021a1.174,1.174,0,0,0-.123-.106A6.894,6.894,0,0,0,278.869,139.462Zm-.811,8.924a5.737,5.737,0,1,1,0-8.113A5.743,5.743,0,0,1,278.057,148.386Z" transform="translate(-267.12 -137.449)"/>
</svg>
