<svg id="icon-sync" xmlns="http://www.w3.org/2000/svg" width="20" height="20" viewBox="0 0 20 20">
  <rect id="Rectangle_89" data-name="Rectangle 89" width="20" height="20" transform="translate(0)" fill="#f2f2f2" opacity="0"/>
  <path id="refresh" d="M5.488,8.115h-1.1V8.106a5.526,5.526,0,0,1,9.431-3.984l1.807-1.743A8,8,0,0,0,9.931,0,8.094,8.094,0,0,0,1.869,8.114H.762c-.679,0-.956.454-.617,1.009l2.363,2.343c.469.469.751.483,1.234,0L6.105,9.123c.339-.555.061-1.008-.617-1.008Z" transform="translate(0 1.895)" fill="#516873"/>
  <path id="refresh-2" data-name="refresh" d="M19.856,7.14,17.492,4.8c-.482-.482-.78-.453-1.233,0L13.9,7.14c-.339.554-.063,1.008.616,1.008h1.093a5.526,5.526,0,0,1-9.43,3.944L4.368,13.833A8.05,8.05,0,0,0,18.129,8.149h1.109c.679,0,.956-.455.617-1.009Z" transform="translate(0 1.895)" fill="#f9c93c"/>
</svg>
