<svg id="icon-faq" xmlns="http://www.w3.org/2000/svg" width="20" height="20" viewBox="0 0 20 20">
  <path id="Fill_1" data-name="Fill 1" d="M10,20A10,10,0,1,1,20,10,10.011,10.011,0,0,1,10,20ZM10,2a8,8,0,1,0,8,8A8.009,8.009,0,0,0,10,2Z" fill="#f9c93c"/>
  <path id="Fill_2" data-name="Fill 2" d="M2.689,8.718A1.156,1.156,0,0,1,1.9,8.444a.929.929,0,0,1-.311-.715A.908.908,0,0,1,1.9,7.019a1.143,1.143,0,0,1,.785-.281,1.123,1.123,0,0,1,.779.281.9.9,0,0,1,.317.709.919.919,0,0,1-.317.715A1.136,1.136,0,0,1,2.689,8.718ZM3.51,5.947H1.834A3.787,3.787,0,0,1,2.028,4.6a2.115,2.115,0,0,1,.626-.861,4.16,4.16,0,0,0,.656-.662,1.091,1.091,0,0,0,.229-.668c0-.587-.256-.885-.761-.885a.711.711,0,0,0-.569.257,1.1,1.1,0,0,0-.228.7H0A2.365,2.365,0,0,1,.738.656,2.951,2.951,0,0,1,2.777,0,3.057,3.057,0,0,1,4.8.6,2.122,2.122,0,0,1,5.52,2.32a2.01,2.01,0,0,1-.194.885,3,3,0,0,1-.621.815l-.674.627a1.588,1.588,0,0,0-.4.568,2.219,2.219,0,0,0-.122.732Z" transform="translate(7.182 5.352)" fill="#516873"/>
</svg>
