<svg id="icon-video" xmlns="http://www.w3.org/2000/svg" width="16" height="16" viewBox="0 0 16 16">
  <rect id="Rectangle_142" data-name="Rectangle 142" width="16" height="16" transform="translate(0)" fill="#fff" opacity="0"/>
  <g id="Group_235" data-name="Group 235" transform="translate(0 2)">
    <path id="Path_40" data-name="Path 40" d="M14.474,3.123c-.722,0-1.389-.052-2.044.014A1.323,1.323,0,0,1,11,2.4C10.514,1.585,9.926.835,9.361.029A1.868,1.868,0,0,1,9.576,0c.837,0,1.675,0,2.512,0a.366.366,0,0,1,.265.1c.7.983,1.39,1.974,2.121,3.018" transform="translate(0 0)"/>
    <path id="Path_41" data-name="Path 41" d="M13.248.007c.839,0,1.623-.007,2.407,0a.333.333,0,0,1,.339.357c.007.906,0,1.812,0,2.714-.458.112-.539.083-.785-.268C14.57,1.9,13.927.977,13.248.007" transform="translate(0 0)"/>
    <path id="Path_42" data-name="Path 42" d="M10.509,3.028Q9.486,1.569,8.459.112A.268.268,0,0,0,8.275.006l-.4,0V0H.371C.128.01,0,.164,0,.445c0,.841,0,1.681,0,2.521a.8.8,0,0,0,.024.145H7.87V3.106c.681.007,1.363,0,2.044,0h.612a.347.347,0,0,0-.017-.082" transform="translate(0 0)"/>
    <path id="Path_43" data-name="Path 43" d="M.006,3.911V11.92c0,.458.1.562.564.562H15.433c.462,0,.567-.105.567-.56V3.911ZM10.473,8.426l-3.9,2.252a.312.312,0,0,1-.468-.271V5.9a.312.312,0,0,1,.468-.27l3.9,2.251a.313.313,0,0,1,0,.541" transform="translate(0 0)"/>
  </g>
</svg>
