<svg id="icon-1080p" xmlns="http://www.w3.org/2000/svg" width="16" height="16" viewBox="0 0 16 16">
  <rect id="Rectangle_161" data-name="Rectangle 161" width="16" height="16" fill="#fff" opacity="0"/>
  <path id="Path_115" data-name="Path 115" d="M3093.14,1849.567v-11.312a.755.755,0,0,1,.563-.5h14.875a.755.755,0,0,1,.563.5v11.313a.755.755,0,0,1-.562.5H3093.7A.755.755,0,0,1,3093.14,1849.567Zm8.414-8.134c-.375,0-.723.008-1.07,0a.2.2,0,0,0-.247.18c-.15.562-.319,1.119-.471,1.681-.037.137-.087.19-.239.187-.536-.012-1.072,0-1.608,0h-.262l.58-2.04c-.375,0-.729.008-1.082,0-.143,0-.2.045-.232.177q-.569,2.018-1.149,4.033c-.069.243-.136.486-.21.75.392,0,.76,0,1.129,0,.1,0,.142-.035.168-.132.153-.556.315-1.11.47-1.666a.147.147,0,0,1,.169-.13c.6.005,1.2,0,1.8,0a1.192,1.192,0,0,1,.124.013l-.542,1.909c.393,0,.756,0,1.12,0,.109,0,.151-.033.18-.138.275-.98.557-1.959.837-2.938C3101.193,1842.7,3101.37,1842.078,3101.554,1841.433Zm.706,1.006h.183c.6,0,1.208,0,1.812,0a2.238,2.238,0,0,1,.373.027.825.825,0,0,1,.731.723,1.607,1.607,0,0,1-.008.57,1.984,1.984,0,0,1-1.158,1.49,4.143,4.143,0,0,1-1.513.135l.646-2.272c-.385,0-.748,0-1.111,0a.166.166,0,0,0-.193.145c-.2.711-.4,1.42-.6,2.13-.093.328-.187.656-.284.992.049,0,.08.01.11.01.708,0,1.418.028,2.124-.012a3.392,3.392,0,0,0,3.123-2.141,2.315,2.315,0,0,0,.166-1.554,1.545,1.545,0,0,0-1.444-1.192c-.858-.077-1.726-.043-2.589-.053a.131.131,0,0,0-.1.073C3102.436,1841.813,3102.352,1842.117,3102.26,1842.44Z" transform="translate(-3093.14 -1835.585)"/>
</svg>
