<svg id="icon-settings" xmlns="http://www.w3.org/2000/svg" width="20" height="20" viewBox="0 0 20 20">
  <rect id="Rectangle_91" data-name="Rectangle 91" width="20" height="20" fill="#f2f2f2" opacity="0"/>
  <g id="Group_136" data-name="Group 136" transform="translate(-622.501 244)">
    <path id="Path_56" data-name="Path 56" d="M4.25,0H3.625A.625.625,0,0,0,3,.626v18.75A.625.625,0,0,0,3.625,20H4.25a.625.625,0,0,0,.625-.625V.625A.625.625,0,0,0,4.25,0Zm6.875,0H10.5a.625.625,0,0,0-.625.625v18.75A.625.625,0,0,0,10.5,20h.625a.624.624,0,0,0,.625-.625V.625A.624.624,0,0,0,11.125,0ZM18,0h-.625a.624.624,0,0,0-.625.625v18.75a.624.624,0,0,0,.625.625H18a.624.624,0,0,0,.625-.625V.625A.624.624,0,0,0,18,0Z" transform="translate(621.377 -244.001)" fill="#516873"/>
    <path id="Path_57" data-name="Path 57" d="M2.813,8a2.812,2.812,0,1,0,2.813,2.813A2.813,2.813,0,0,0,2.813,8Zm6.875,5.625A2.813,2.813,0,1,0,12.5,16.438,2.814,2.814,0,0,0,9.688,13.625ZM16.563,8a2.812,2.812,0,1,0,2.813,2.813A2.814,2.814,0,0,0,16.563,8Z" transform="translate(622.501 -247.001)" fill="#f9c93c"/>
    <g id="Group_136-2" data-name="Group 136" transform="translate(622.501 -239.001)">
      <path id="Path_7" data-name="Path 7" d="M16.563,8a2.812,2.812,0,1,0,2.813,2.813A2.814,2.814,0,0,0,16.563,8Zm0,4.688a1.875,1.875,0,1,1,1.875-1.875A1.877,1.877,0,0,1,16.563,12.688Zm-6.875.937A2.813,2.813,0,1,0,12.5,16.438,2.814,2.814,0,0,0,9.688,13.625Zm0,4.688a1.875,1.875,0,1,1,1.875-1.875A1.877,1.877,0,0,1,9.688,18.313ZM2.813,8a2.812,2.812,0,1,0,2.813,2.813A2.813,2.813,0,0,0,2.813,8Zm0,4.688a1.875,1.875,0,1,1,1.875-1.875A1.877,1.877,0,0,1,2.813,12.688Z" transform="translate(0 -8)" fill="#f9c93c"/>
    </g>
  </g>
</svg>
