<svg xmlns="http://www.w3.org/2000/svg" xmlns:xlink="http://www.w3.org/1999/xlink" width="101.531" height="41.605" viewBox="0 0 101.531 41.605">
  <defs>
    <filter id="Path_135" x="29" y="12.858" width="72.531" height="28.747" filterUnits="userSpaceOnUse">
      <feOffset dy="3" input="SourceAlpha"/>
      <feGaussianBlur stdDeviation="3" result="blur"/>
      <feFlood flood-opacity="0.161"/>
      <feComposite operator="in" in2="blur"/>
      <feComposite in="SourceGraphic"/>
    </filter>
    <filter id="Path_134" x="29" y="0" width="68.71" height="28.574" filterUnits="userSpaceOnUse">
      <feOffset dy="3" input="SourceAlpha"/>
      <feGaussianBlur stdDeviation="3" result="blur-2"/>
      <feFlood flood-opacity="0.161"/>
      <feComposite operator="in" in2="blur-2"/>
      <feComposite in="SourceGraphic"/>
    </filter>
    <clipPath id="clip-path">
      <rect id="Rectangle_69" data-name="Rectangle 69" width="32" height="32" fill="#f2f2f2"/>
    </clipPath>
    <radialGradient id="radial-gradient" cx="0.5" cy="0.5" r="0.5" gradientUnits="objectBoundingBox">
      <stop offset="0" stop-color="#46b5ff"/>
      <stop offset="1" stop-color="#09f"/>
    </radialGradient>
  </defs>
  <g id="ts-free-header-logo" transform="translate(1358 1142.422)">
    <g transform="matrix(1, 0, 0, 1, -1358, -1142.42)" filter="url(#Path_135)">
      <path id="Path_135-2" data-name="Path 135" d="M10.992-7.816a1.6,1.6,0,0,0-.743-1.2,2.85,2.85,0,0,0-1.6-.427,3.019,3.019,0,0,0-1.209.224,1.913,1.913,0,0,0-.8.616,1.467,1.467,0,0,0-.288.891,1.247,1.247,0,0,0,.2.715,1.69,1.69,0,0,0,.517.494,3.5,3.5,0,0,0,.662.321q.346.125.636.2L9.424-5.7a9.407,9.407,0,0,1,.908.3,4.31,4.31,0,0,1,.962.511,2.657,2.657,0,0,1,.761.827,2.377,2.377,0,0,1,.3,1.237,2.755,2.755,0,0,1-.44,1.527A3.034,3.034,0,0,1,10.633-.219a4.714,4.714,0,0,1-2.043.4A4.759,4.759,0,0,1,6.654-.178,3.068,3.068,0,0,1,5.371-1.186a2.862,2.862,0,0,1-.527-1.5h1.3a1.611,1.611,0,0,0,.4.975,2.1,2.1,0,0,0,.885.57A3.517,3.517,0,0,0,8.59-.957a3.383,3.383,0,0,0,1.3-.237,2.2,2.2,0,0,0,.911-.662,1.557,1.557,0,0,0,.336-.995,1.222,1.222,0,0,0-.29-.845,2.129,2.129,0,0,0-.763-.529A8.021,8.021,0,0,0,9.058-4.58L7.776-4.946a4.776,4.776,0,0,1-1.934-1,2.2,2.2,0,0,1-.712-1.7,2.53,2.53,0,0,1,.476-1.529A3.149,3.149,0,0,1,6.888-10.2a4.339,4.339,0,0,1,1.8-.364,4.259,4.259,0,0,1,1.791.359,3.138,3.138,0,0,1,1.244.98,2.443,2.443,0,0,1,.486,1.41ZM17.444.163a3.382,3.382,0,0,1-1.893-.519,3.383,3.383,0,0,1-1.221-1.43A4.845,4.845,0,0,1,13.9-3.867a4.791,4.791,0,0,1,.44-2.1A3.456,3.456,0,0,1,15.574-7.4a3.307,3.307,0,0,1,1.85-.517,3.505,3.505,0,0,1,1.486.305,2.845,2.845,0,0,1,1.084.855,2.666,2.666,0,0,1,.524,1.282h-1.2a1.881,1.881,0,0,0-.608-.949,1.844,1.844,0,0,0-1.265-.415,2.109,2.109,0,0,0-1.229.364A2.382,2.382,0,0,0,15.4-5.453,3.779,3.779,0,0,0,15.1-3.908a3.986,3.986,0,0,0,.288,1.578,2.39,2.39,0,0,0,.814,1.043,2.1,2.1,0,0,0,1.239.371,2.144,2.144,0,0,0,.85-.163,1.753,1.753,0,0,0,.646-.468,1.794,1.794,0,0,0,.377-.733h1.2a2.78,2.78,0,0,1-.5,1.244,2.81,2.81,0,0,1-1.053.875A3.388,3.388,0,0,1,17.444.163Zm7.124.02A3.152,3.152,0,0,1,23.22-.1a2.29,2.29,0,0,1-.962-.819,2.3,2.3,0,0,1-.356-1.3,2.02,2.02,0,0,1,.265-1.092,1.874,1.874,0,0,1,.707-.659,3.778,3.778,0,0,1,.98-.359q.537-.12,1.081-.191.712-.092,1.158-.14a1.771,1.771,0,0,0,.651-.165.429.429,0,0,0,.206-.407v-.041a1.6,1.6,0,0,0-.41-1.17A1.665,1.665,0,0,0,25.3-6.86a2.16,2.16,0,0,0-1.349.377,2.226,2.226,0,0,0-.687.8l-1.14-.407A2.747,2.747,0,0,1,22.943-7.2a3.078,3.078,0,0,1,1.12-.56,4.688,4.688,0,0,1,1.2-.16,4.932,4.932,0,0,1,.868.089,2.837,2.837,0,0,1,.952.364,2.131,2.131,0,0,1,.766.829,3.086,3.086,0,0,1,.305,1.486V0h-1.2V-1.058h-.061a2.114,2.114,0,0,1-.407.544,2.349,2.349,0,0,1-.758.494A2.921,2.921,0,0,1,24.569.183ZM24.752-.9a2.4,2.4,0,0,0,1.2-.28A1.929,1.929,0,0,0,26.7-1.9a1.856,1.856,0,0,0,.252-.931v-1.1a.7.7,0,0,1-.333.165,5.055,5.055,0,0,1-.59.127q-.333.053-.646.092l-.506.064a4.663,4.663,0,0,0-.873.2,1.521,1.521,0,0,0-.651.4,1.027,1.027,0,0,0-.247.725,1.069,1.069,0,0,0,.466.944A2.053,2.053,0,0,0,24.752-.9ZM31.55-4.7V0h-1.2V-7.816h1.16V-6.6h.1a2.248,2.248,0,0,1,.835-.959,2.608,2.608,0,0,1,1.445-.364,2.868,2.868,0,0,1,1.389.323,2.211,2.211,0,0,1,.926.977,3.646,3.646,0,0,1,.331,1.651V0h-1.2V-4.885a2.035,2.035,0,0,0-.478-1.438,1.7,1.7,0,0,0-1.313-.517,2.081,2.081,0,0,0-1.025.249,1.779,1.779,0,0,0-.71.728A2.4,2.4,0,0,0,31.55-4.7Zm8.386,0V0h-1.2V-7.816H39.9V-6.6H40a2.248,2.248,0,0,1,.835-.959,2.608,2.608,0,0,1,1.445-.364,2.868,2.868,0,0,1,1.389.323,2.211,2.211,0,0,1,.926.977,3.646,3.646,0,0,1,.331,1.651V0h-1.2V-4.885a2.035,2.035,0,0,0-.478-1.438,1.7,1.7,0,0,0-1.313-.517,2.081,2.081,0,0,0-1.025.249,1.779,1.779,0,0,0-.71.728A2.4,2.4,0,0,0,39.937-4.7ZM50.4.163a3.649,3.649,0,0,1-1.946-.5,3.305,3.305,0,0,1-1.257-1.4,4.75,4.75,0,0,1-.44-2.1,4.849,4.849,0,0,1,.44-2.119A3.449,3.449,0,0,1,48.427-7.4a3.307,3.307,0,0,1,1.85-.517,3.705,3.705,0,0,1,1.206.2,3,3,0,0,1,1.084.659,3.189,3.189,0,0,1,.779,1.2,5.12,5.12,0,0,1,.29,1.842V-3.5H47.611V-4.539h4.8a2.583,2.583,0,0,0-.262-1.181,2.017,2.017,0,0,0-.743-.819,2.094,2.094,0,0,0-1.132-.3,2.155,2.155,0,0,0-1.239.354,2.355,2.355,0,0,0-.8.919,2.691,2.691,0,0,0-.28,1.211v.692a3.314,3.314,0,0,0,.308,1.5,2.167,2.167,0,0,0,.857.931A2.5,2.5,0,0,0,50.4-.916a2.576,2.576,0,0,0,.857-.135,1.789,1.789,0,0,0,.664-.407,1.825,1.825,0,0,0,.433-.679l1.16.326A2.552,2.552,0,0,1,52.9-.776a2.956,2.956,0,0,1-1.069.692A3.927,3.927,0,0,1,50.4.163ZM55.468,0V-7.816h1.16v1.181h.081a1.877,1.877,0,0,1,.773-.941,2.277,2.277,0,0,1,1.262-.361q.132,0,.331.005t.3.015V-6.7q-.061-.015-.277-.048a3.012,3.012,0,0,0-.455-.033,2.13,2.13,0,0,0-1.015.237,1.806,1.806,0,0,0-.7.651,1.755,1.755,0,0,0-.257.944V0Z" transform="translate(33.16 29.42)" fill="#fff"/>
    </g>
    <g transform="matrix(1, 0, 0, 1, -1358, -1142.42)" filter="url(#Path_134)">
      <path id="Path_134-2" data-name="Path 134" d="M.509-8.605v-1.817H9.068v1.817H5.878V0H3.7V-8.605ZM12.834.153a3.975,3.975,0,0,1-2.048-.506A3.422,3.422,0,0,1,9.455-1.768a4.542,4.542,0,0,1-.468-2.109A4.565,4.565,0,0,1,9.455-6a3.422,3.422,0,0,1,1.331-1.415,3.975,3.975,0,0,1,2.048-.506,3.975,3.975,0,0,1,2.048.506A3.422,3.422,0,0,1,16.213-6a4.565,4.565,0,0,1,.468,2.119,4.542,4.542,0,0,1-.468,2.109A3.422,3.422,0,0,1,14.882-.354,3.975,3.975,0,0,1,12.834.153Zm.01-1.679a1.34,1.34,0,0,0,.9-.308,1.894,1.894,0,0,0,.547-.842,3.693,3.693,0,0,0,.186-1.216,3.693,3.693,0,0,0-.186-1.216,1.912,1.912,0,0,0-.547-.845,1.334,1.334,0,0,0-.9-.31,1.37,1.37,0,0,0-.913.31,1.881,1.881,0,0,0-.555.845,3.693,3.693,0,0,0-.186,1.216,3.693,3.693,0,0,0,.186,1.216,1.863,1.863,0,0,0,.555.842A1.378,1.378,0,0,0,12.844-1.527ZM18.1,0V-7.816h2.1v1.364h.081A2.031,2.031,0,0,1,21-7.554a1.9,1.9,0,0,1,1.16-.374,3.279,3.279,0,0,1,.351.02,2.473,2.473,0,0,1,.331.056v1.924a2.832,2.832,0,0,0-.422-.081,3.794,3.794,0,0,0-.494-.036,1.737,1.737,0,0,0-.852.206,1.531,1.531,0,0,0-.59.572,1.63,1.63,0,0,0-.216.845V0Zm5.857,0V-7.816h2.1v1.364h.081a2.031,2.031,0,0,1,.718-1.1,1.9,1.9,0,0,1,1.16-.374,3.279,3.279,0,0,1,.351.02,2.472,2.472,0,0,1,.331.056v1.924a2.832,2.832,0,0,0-.422-.081,3.794,3.794,0,0,0-.494-.036,1.737,1.737,0,0,0-.852.206,1.531,1.531,0,0,0-.59.572,1.63,1.63,0,0,0-.216.845V0Zm9.053.153a4.144,4.144,0,0,1-2.074-.491A3.322,3.322,0,0,1,29.6-1.733a4.593,4.593,0,0,1-.468-2.14A4.569,4.569,0,0,1,29.6-5.989a3.455,3.455,0,0,1,1.321-1.42,3.833,3.833,0,0,1,2-.509,4.137,4.137,0,0,1,1.443.247,3.252,3.252,0,0,1,1.17.74,3.373,3.373,0,0,1,.781,1.239,4.949,4.949,0,0,1,.28,1.743v.6h-6.6V-4.7h4.56a1.661,1.661,0,0,0-.2-.829,1.481,1.481,0,0,0-.562-.567,1.641,1.641,0,0,0-.832-.206,1.669,1.669,0,0,0-.873.226,1.624,1.624,0,0,0-.593.606,1.725,1.725,0,0,0-.219.842v1.277a2.174,2.174,0,0,0,.216,1,1.548,1.548,0,0,0,.613.651,1.852,1.852,0,0,0,.941.229,2.05,2.05,0,0,0,.662-.1,1.373,1.373,0,0,0,.514-.305,1.328,1.328,0,0,0,.326-.5l2,.132A2.733,2.733,0,0,1,35.924-.98a3.132,3.132,0,0,1-1.211.835A4.552,4.552,0,0,1,33.006.153Zm7.17-4.671V0H38.008V-7.816h2.066v1.379h.092a2.194,2.194,0,0,1,.87-1.081,2.646,2.646,0,0,1,1.481-.4,2.749,2.749,0,0,1,1.42.356,2.425,2.425,0,0,1,.941,1.015,3.419,3.419,0,0,1,.336,1.57V0H43.046V-4.59a1.579,1.579,0,0,0-.366-1.122,1.319,1.319,0,0,0-1.023-.4,1.541,1.541,0,0,0-.771.188,1.3,1.3,0,0,0-.519.547A1.9,1.9,0,0,0,40.176-4.519Zm10.9-3.3v1.628H46.369V-7.816ZM47.438-9.689h2.168V-2.4a.972.972,0,0,0,.092.466.5.5,0,0,0,.257.232,1.03,1.03,0,0,0,.384.066,1.69,1.69,0,0,0,.305-.028l.234-.043L51.219-.1q-.163.051-.458.12a3.827,3.827,0,0,1-.718.084A3.277,3.277,0,0,1,48.672-.1a1.916,1.916,0,0,1-.913-.743,2.272,2.272,0,0,1-.321-1.272Z" transform="translate(37.49 16.42)" fill="#09f"/>
    </g>
    <g id="TSFree-logo-32" transform="translate(-2766 -1625)">
      <g id="icon-bg" transform="translate(1408 485)" clip-path="url(#clip-path)">
        <path id="Path_54" data-name="Path 54" d="M12.856.817a3.978,3.978,0,0,1,4.83,0L28.98,9.444a3.978,3.978,0,0,1,1.386,4.336L25.973,27.995a3.978,3.978,0,0,1-3.8,2.8H8.371a3.978,3.978,0,0,1-3.8-2.8L.178,13.78A3.978,3.978,0,0,1,1.563,9.444Z" transform="matrix(0.966, -0.259, 0.259, 0.966, -2.249, 4.099)" fill="url(#radial-gradient)"/>
      </g>
      <g id="magnet" transform="translate(1438.208 499.004) rotate(120)">
        <path id="Path_31" data-name="Path 31" d="M321.811,399.548l-3.029,3.029a3.14,3.14,0,1,1-4.441-4.441l3.029-3.029-3.231-3.231-3.029,3.029a7.709,7.709,0,1,0,10.9,10.9l3.029-3.029Zm0,0" transform="translate(-308.856 -388.957)" fill="#fff"/>
        <rect id="Rectangle_19" data-name="Rectangle 19" width="3" height="4.569" transform="translate(13.755 9.791) rotate(-45)" fill="#b4e1ff"/>
        <rect id="Rectangle_20" data-name="Rectangle 20" width="3" height="4.569" transform="translate(6.083 2.119) rotate(-45)" fill="#b4e1ff"/>
      </g>
    </g>
  </g>
</svg>
