<svg xmlns="http://www.w3.org/2000/svg" xmlns:xlink="http://www.w3.org/1999/xlink" width="97.931" height="40.047" viewBox="0 0 97.931 40.047">
  <defs>
    <filter id="Path_135" x="26.493" y="12.009" width="68.933" height="28.038" filterUnits="userSpaceOnUse">
      <feOffset dy="3" input="SourceAlpha"/>
      <feGaussianBlur stdDeviation="3" result="blur"/>
      <feFlood flood-opacity="0.161"/>
      <feComposite operator="in" in2="blur"/>
      <feComposite in="SourceGraphic"/>
    </filter>
    <filter id="Path_134" x="26.493" y="0" width="65.364" height="27.877" filterUnits="userSpaceOnUse">
      <feOffset dy="3" input="SourceAlpha"/>
      <feGaussianBlur stdDeviation="3" result="blur-2"/>
      <feFlood flood-opacity="0.161"/>
      <feComposite operator="in" in2="blur-2"/>
      <feComposite in="SourceGraphic"/>
    </filter>
    <clipPath id="clip-path">
      <rect id="Rectangle_69" data-name="Rectangle 69" width="29.888" height="29.888" fill="#f2f2f2"/>
    </clipPath>
    <radialGradient id="radial-gradient" cx="0.5" cy="0.5" r="0.5" gradientUnits="objectBoundingBox">
      <stop offset="0" stop-color="#46b5ff"/>
      <stop offset="1" stop-color="#09f"/>
    </radialGradient>
  </defs>
  <g id="logo_torrent_plus" data-name="logo torrent plus" transform="translate(-84 -61.394)">
    <g id="ts-free-header-logo" transform="translate(84 64.052)">
      <g transform="matrix(1, 0, 0, 1, 0, -2.66)" filter="url(#Path_135)">
        <path id="Path_135-2" data-name="Path 135" d="M10.586-8a1.492,1.492,0,0,0-.694-1.122,2.662,2.662,0,0,0-1.492-.4,2.82,2.82,0,0,0-1.129.209,1.787,1.787,0,0,0-.751.575,1.37,1.37,0,0,0-.269.832,1.165,1.165,0,0,0,.188.668,1.579,1.579,0,0,0,.482.461,3.269,3.269,0,0,0,.618.3q.323.116.594.188l.989.266a8.786,8.786,0,0,1,.848.276,4.026,4.026,0,0,1,.9.478,2.482,2.482,0,0,1,.711.772,2.22,2.22,0,0,1,.28,1.155,2.573,2.573,0,0,1-.411,1.426A2.834,2.834,0,0,1,10.251-.9a4.4,4.4,0,0,1-1.908.375A4.445,4.445,0,0,1,6.534-.863a2.865,2.865,0,0,1-1.2-.941,2.674,2.674,0,0,1-.492-1.4H6.061a1.5,1.5,0,0,0,.373.91,1.957,1.957,0,0,0,.827.532,3.285,3.285,0,0,0,1.081.173,3.16,3.16,0,0,0,1.212-.221,2.052,2.052,0,0,0,.851-.618,1.454,1.454,0,0,0,.314-.929,1.142,1.142,0,0,0-.271-.789,1.988,1.988,0,0,0-.713-.494,7.492,7.492,0,0,0-.955-.333l-1.2-.342a4.461,4.461,0,0,1-1.806-.936,2.056,2.056,0,0,1-.665-1.592,2.363,2.363,0,0,1,.444-1.428,2.941,2.941,0,0,1,1.2-.951,4.052,4.052,0,0,1,1.685-.34,3.978,3.978,0,0,1,1.673.335,2.931,2.931,0,0,1,1.162.915A2.282,2.282,0,0,1,11.727-8ZM16.613-.545a3.158,3.158,0,0,1-1.768-.485A3.159,3.159,0,0,1,13.7-2.365a4.525,4.525,0,0,1-.4-1.944,4.475,4.475,0,0,1,.411-1.965,3.228,3.228,0,0,1,1.15-1.336,3.089,3.089,0,0,1,1.728-.482,3.274,3.274,0,0,1,1.388.285,2.658,2.658,0,0,1,1.012.8,2.49,2.49,0,0,1,.49,1.2H18.362a1.757,1.757,0,0,0-.568-.886,1.723,1.723,0,0,0-1.181-.387,1.969,1.969,0,0,0-1.148.34,2.225,2.225,0,0,0-.765.955,3.529,3.529,0,0,0-.273,1.443A3.723,3.723,0,0,0,14.7-2.874a2.232,2.232,0,0,0,.76.974,1.956,1.956,0,0,0,1.157.347,2,2,0,0,0,.794-.152,1.637,1.637,0,0,0,.6-.437,1.676,1.676,0,0,0,.352-.684h1.122a2.6,2.6,0,0,1-.468,1.162,2.625,2.625,0,0,1-.984.818A3.165,3.165,0,0,1,16.613-.545Zm6.654.019a2.944,2.944,0,0,1-1.26-.264,2.139,2.139,0,0,1-.9-.765,2.147,2.147,0,0,1-.333-1.214,1.886,1.886,0,0,1,.247-1.02,1.751,1.751,0,0,1,.661-.616A3.528,3.528,0,0,1,22.6-4.74q.5-.112,1.01-.178.665-.086,1.081-.131A1.654,1.654,0,0,0,25.3-5.2a.4.4,0,0,0,.192-.38v-.038a1.494,1.494,0,0,0-.383-1.093,1.556,1.556,0,0,0-1.157-.39,2.017,2.017,0,0,0-1.26.352A2.079,2.079,0,0,0,22.05-6l-1.065-.38a2.565,2.565,0,0,1,.763-1.039,2.875,2.875,0,0,1,1.046-.523,4.379,4.379,0,0,1,1.119-.15,4.606,4.606,0,0,1,.81.083,2.649,2.649,0,0,1,.889.34,1.99,1.99,0,0,1,.715.775,2.882,2.882,0,0,1,.285,1.388V-.7H25.492v-.989h-.057a1.975,1.975,0,0,1-.38.509,2.194,2.194,0,0,1-.708.461A2.728,2.728,0,0,1,23.267-.526Zm.171-1.008A2.239,2.239,0,0,0,24.562-1.8a1.8,1.8,0,0,0,.694-.675,1.733,1.733,0,0,0,.235-.87V-4.366a.655.655,0,0,1-.311.154,4.721,4.721,0,0,1-.551.119q-.311.05-.6.086l-.473.059a4.355,4.355,0,0,0-.815.183,1.42,1.42,0,0,0-.608.375.959.959,0,0,0-.231.677,1,1,0,0,0,.435.882A1.917,1.917,0,0,0,23.438-1.534Zm6.35-3.555V-.7H28.667V-8H29.75v1.141h.1a2.1,2.1,0,0,1,.779-.9,2.436,2.436,0,0,1,1.35-.34,2.679,2.679,0,0,1,1.3.3,2.065,2.065,0,0,1,.865.913,3.4,3.4,0,0,1,.309,1.542V-.7H33.324V-5.26A1.9,1.9,0,0,0,32.878-6.6a1.589,1.589,0,0,0-1.226-.482,1.944,1.944,0,0,0-.958.233,1.662,1.662,0,0,0-.663.68A2.244,2.244,0,0,0,29.788-5.089Zm7.833,0V-.7H36.5V-8h1.084v1.141h.1a2.1,2.1,0,0,1,.779-.9,2.436,2.436,0,0,1,1.35-.34,2.679,2.679,0,0,1,1.3.3,2.065,2.065,0,0,1,.865.913,3.4,3.4,0,0,1,.309,1.542V-.7H41.157V-5.26A1.9,1.9,0,0,0,40.711-6.6a1.589,1.589,0,0,0-1.226-.482,1.944,1.944,0,0,0-.958.233,1.662,1.662,0,0,0-.663.68A2.244,2.244,0,0,0,37.621-5.089ZM47.393-.545a3.408,3.408,0,0,1-1.818-.468A3.087,3.087,0,0,1,44.4-2.325,4.437,4.437,0,0,1,43.99-4.29,4.529,4.529,0,0,1,44.4-6.27a3.222,3.222,0,0,1,1.15-1.34,3.089,3.089,0,0,1,1.728-.482,3.461,3.461,0,0,1,1.126.19,2.806,2.806,0,0,1,1.012.616,2.979,2.979,0,0,1,.727,1.124,4.782,4.782,0,0,1,.271,1.721v.475H44.789v-.97h4.487a2.413,2.413,0,0,0-.245-1.1,1.884,1.884,0,0,0-.694-.765,1.956,1.956,0,0,0-1.058-.28,2.012,2.012,0,0,0-1.157.33,2.2,2.2,0,0,0-.749.858,2.513,2.513,0,0,0-.261,1.131v.646a3.1,3.1,0,0,0,.288,1.4,2.024,2.024,0,0,0,.8.87,2.339,2.339,0,0,0,1.193.3,2.406,2.406,0,0,0,.8-.126,1.671,1.671,0,0,0,.62-.38,1.7,1.7,0,0,0,.4-.635l1.084.3a2.384,2.384,0,0,1-.575.967,2.761,2.761,0,0,1-1,.646A3.668,3.668,0,0,1,47.393-.545ZM52.127-.7V-8h1.084v1.1h.076a1.753,1.753,0,0,1,.722-.879,2.127,2.127,0,0,1,1.179-.337q.124,0,.309,0t.28.014v1.141q-.057-.014-.259-.045a2.813,2.813,0,0,0-.425-.031,1.989,1.989,0,0,0-.948.221,1.687,1.687,0,0,0-.656.608,1.639,1.639,0,0,0-.24.882V-.7Z" transform="translate(30.65 28.57)" fill="#fff"/>
      </g>
      <g transform="matrix(1, 0, 0, 1, 0, -2.66)" filter="url(#Path_134)">
        <path id="Path_134-2" data-name="Path 134" d="M.509-8.725v-1.7H8.5v1.7H5.523V-.688H3.489V-8.725ZM12.021-.545a3.712,3.712,0,0,1-1.913-.473A3.2,3.2,0,0,1,8.865-2.339a4.242,4.242,0,0,1-.437-1.97,4.264,4.264,0,0,1,.437-1.98A3.2,3.2,0,0,1,10.108-7.61a3.712,3.712,0,0,1,1.913-.473,3.712,3.712,0,0,1,1.913.473,3.2,3.2,0,0,1,1.243,1.321,4.264,4.264,0,0,1,.437,1.98,4.242,4.242,0,0,1-.437,1.97,3.2,3.2,0,0,1-1.243,1.321A3.712,3.712,0,0,1,12.021-.545Zm.01-1.568a1.252,1.252,0,0,0,.841-.288,1.769,1.769,0,0,0,.511-.787,3.45,3.45,0,0,0,.173-1.136,3.45,3.45,0,0,0-.173-1.136,1.786,1.786,0,0,0-.511-.789,1.246,1.246,0,0,0-.841-.29,1.28,1.28,0,0,0-.853.29,1.757,1.757,0,0,0-.518.789,3.45,3.45,0,0,0-.173,1.136,3.45,3.45,0,0,0,.173,1.136,1.74,1.74,0,0,0,.518.787A1.287,1.287,0,0,0,12.03-2.114ZM16.935-.688v-7.3H18.9v1.274h.076a1.9,1.9,0,0,1,.67-1.029,1.77,1.77,0,0,1,1.084-.349,3.063,3.063,0,0,1,.328.019,2.309,2.309,0,0,1,.309.052v1.8a2.645,2.645,0,0,0-.394-.076,3.544,3.544,0,0,0-.461-.033,1.622,1.622,0,0,0-.8.192,1.43,1.43,0,0,0-.551.535,1.523,1.523,0,0,0-.2.789v4.13Zm5.471,0v-7.3h1.963v1.274h.076a1.9,1.9,0,0,1,.67-1.029A1.77,1.77,0,0,1,26.2-8.093a3.063,3.063,0,0,1,.328.019,2.309,2.309,0,0,1,.309.052v1.8a2.645,2.645,0,0,0-.394-.076,3.544,3.544,0,0,0-.461-.033,1.622,1.622,0,0,0-.8.192,1.43,1.43,0,0,0-.551.535,1.523,1.523,0,0,0-.2.789v4.13Zm8.456.143A3.871,3.871,0,0,1,28.925-1a3.1,3.1,0,0,1-1.248-1.3,4.29,4.29,0,0,1-.437-2,4.268,4.268,0,0,1,.437-1.977A3.227,3.227,0,0,1,28.91-7.608a3.58,3.58,0,0,1,1.87-.475,3.864,3.864,0,0,1,1.347.231,3.037,3.037,0,0,1,1.093.692A3.15,3.15,0,0,1,33.951-6a4.623,4.623,0,0,1,.261,1.628v.556H28.048V-5.075h4.259a1.551,1.551,0,0,0-.19-.775,1.383,1.383,0,0,0-.525-.53,1.532,1.532,0,0,0-.777-.192A1.559,1.559,0,0,0,30-6.36a1.517,1.517,0,0,0-.554.566,1.611,1.611,0,0,0-.2.787v1.193a2.031,2.031,0,0,0,.2.936,1.446,1.446,0,0,0,.573.608,1.73,1.73,0,0,0,.879.214,1.915,1.915,0,0,0,.618-.1,1.282,1.282,0,0,0,.48-.285,1.24,1.24,0,0,0,.3-.466l1.873.124A2.553,2.553,0,0,1,33.587-1.6a2.925,2.925,0,0,1-1.131.779A4.251,4.251,0,0,1,30.861-.545Zm6.7-4.363V-.688H35.534v-7.3h1.93V-6.7h.086a2.049,2.049,0,0,1,.813-1.01,2.471,2.471,0,0,1,1.383-.373,2.568,2.568,0,0,1,1.326.333,2.265,2.265,0,0,1,.879.948,3.193,3.193,0,0,1,.314,1.466V-.688H40.239V-4.975A1.475,1.475,0,0,0,39.9-6.023a1.232,1.232,0,0,0-.955-.378,1.439,1.439,0,0,0-.72.176,1.21,1.21,0,0,0-.485.511A1.773,1.773,0,0,0,37.558-4.908Zm10.181-3.08v1.521h-4.4V-7.988Zm-3.4-1.749h2.025v6.806a.908.908,0,0,0,.086.435.468.468,0,0,0,.24.216.962.962,0,0,0,.359.062,1.578,1.578,0,0,0,.285-.026l.219-.04.318,1.507q-.152.048-.428.112a3.575,3.575,0,0,1-.67.078,3.061,3.061,0,0,1-1.281-.195,1.79,1.79,0,0,1-.853-.694,2.122,2.122,0,0,1-.3-1.188Z" transform="translate(34.98 16.42)" fill="#09f"/>
      </g>
      <g id="TSFree-logo-32" transform="translate(0)">
        <g id="icon-bg" transform="translate(0)" clip-path="url(#clip-path)">
          <path id="Path_54" data-name="Path 54" d="M12.008.763a3.716,3.716,0,0,1,4.511,0L27.067,8.821a3.716,3.716,0,0,1,1.294,4.05l-4.1,13.277a3.716,3.716,0,0,1-3.55,2.619H7.819a3.716,3.716,0,0,1-3.55-2.619L.166,12.871A3.716,3.716,0,0,1,1.46,8.821Z" transform="matrix(0.966, -0.259, 0.259, 0.966, -2.1, 3.828)" fill="url(#radial-gradient)"/>
        </g>
        <g id="magnet" transform="translate(28.217 13.081) rotate(120)">
          <path id="Path_31" data-name="Path 31" d="M12.1,7.166,9.272,9.995A2.933,2.933,0,1,1,5.124,5.846L7.952,3.018,4.935,0,2.106,2.829A7.2,7.2,0,1,0,12.289,13.012l2.829-2.829Zm0,0" transform="translate(0 2.728)" fill="#fff"/>
          <rect id="Rectangle_19" data-name="Rectangle 19" width="2.802" height="4.268" transform="translate(12.847 9.147) rotate(-45)" fill="#b4e1ff"/>
          <rect id="Rectangle_20" data-name="Rectangle 20" width="2.802" height="4.268" transform="translate(5.681 1.981) rotate(-45)" fill="#b4e1ff"/>
        </g>
      </g>
    </g>
    <path id="Path_1005" data-name="Path 1005" d="M1.563-28.361H4.687v-3.133H6.81v3.133H9.952v2.123H6.81v3.116H4.687v-3.116H1.563Z" transform="translate(171.979 112.748)" fill="#fff"/>
  </g>
</svg>
