<svg width="21" height="18" viewBox="0 0 21 18" fill="none" xmlns="http://www.w3.org/2000/svg">
<path fill-rule="evenodd" clip-rule="evenodd" d="M19.5 10.5V1H16.2998V3.24707L11.2314 1H3.33398L0.964355 12H8V17H11.2314L14.1045 10.5L16.2998 10L17.0005 11.167L19.5 10.5Z" fill="#ED9D98"/>
<path fill-rule="evenodd" clip-rule="evenodd" d="M3.83449 2H10.8075L15.0005 3.677V9H14.0005C13.6005 9 13.2385 9.238 13.0815 9.606L10.3405 16H9.00049V12C9.00049 11.448 8.55249 11 8.00049 11H2.19849L3.83449 2ZM17.0005 2H19.0005V10H17.0005V2ZM0.232489 12.641C0.422489 12.868 0.703487 13 1.00049 13H7.00049V17C7.00049 17.552 7.44749 18 8.00049 18H11.0005C11.3995 18 11.7615 17.762 11.9185 17.395L14.6595 11H15.0005C15.0005 11.552 15.4475 12 16.0005 12H20.0005C20.5525 12 21.0005 11.552 21.0005 11V1C21.0005 0.448 20.5525 0 20.0005 0H16.0005C15.4475 0 15.0005 0.448 15.0005 1V1.522L11.3715 0.0709991C11.2535 0.0239983 11.1275 0 11.0005 0H3.00049C2.51649 0 2.10249 0.345999 2.01649 0.820999L0.016489 11.821C-0.0375118 12.113 0.0424881 12.413 0.232489 12.641Z" fill="#9A1E16"/>
</svg>
