<svg width="21" height="18" viewBox="0 0 21 18" fill="none" xmlns="http://www.w3.org/2000/svg">
<path fill-rule="evenodd" clip-rule="evenodd" d="M1.50049 7.5V17H4.70068V14.7529L9.76904 17H17.6665L20.0361 6H13.0005V1H9.76904L6.896 7.5L4.70068 8L3.99999 6.83301L1.50049 7.5Z" fill="#DEF2D8"/>
<path fill-rule="evenodd" clip-rule="evenodd" d="M17.166 16H10.193L6 14.323V9H7C7.4 9 7.762 8.762 7.919 8.394L10.66 2H12V6C12 6.552 12.448 7 13 7H18.802L17.166 16ZM4 16H2V8H4V16ZM20.768 5.359C20.578 5.132 20.297 5 20 5H14V1C14 0.448 13.553 0 13 0H10C9.601 0 9.239 0.238 9.082 0.605L6.341 7H6C6 6.448 5.553 6 5 6H1C0.448 6 0 6.448 0 7V17C0 17.552 0.448 18 1 18H5C5.553 18 6 17.552 6 17V16.478L9.629 17.929C9.747 17.976 9.873 18 10 18H18C18.484 18 18.898 17.654 18.984 17.179L20.984 6.179C21.038 5.887 20.958 5.587 20.768 5.359Z" fill="#5B7F51"/>
</svg>
