<?xml version="1.0" encoding="UTF-8"?>
<svg width="21px" height="18px" viewBox="0 0 21 18" version="1.1" xmlns="http://www.w3.org/2000/svg" xmlns:xlink="http://www.w3.org/1999/xlink">
    <title>Negativo inativo@1,5x</title>
    <g id="Teste-1---Mais-produtos" stroke="none" stroke-width="1" fill="none" fill-rule="evenodd">
        <g id="Negativo-inativo" fill="#665980">
            <path d="M19,10 L17,10 L17,2 L19,2 L19,10 Z M14,9 C13.6,9 13.238,9.238 13.081,9.605 L10.341,16 L9,16 L9,12 C9,11.448 8.552,11 8,11 L2.198,11 L3.834,2 L10.808,2 L15,3.677 L15,9 L14,9 Z M20,0 L16,0 C15.448,0 15,0.448 15,1 L15,1.522 L11.372,0.071 C11.253,0.024 11.127,0 11,0 L3,0 C2.517,0 2.103,0.346 2.016,0.821 L0.016,11.821 C-0.037,12.113 0.042,12.413 0.232,12.641 C0.422,12.868 0.704,13 1,13 L7,13 L7,17 C7,17.552 7.448,18 8,18 L11,18 C11.4,18 11.762,17.762 11.919,17.394 L14.659,11 L15,11 C15,11.552 15.448,12 16,12 L20,12 C20.552,12 21,11.552 21,11 L21,1 C21,0.448 20.552,0 20,0 L20,0 Z" id="Fill-2207"></path>
        </g>
    </g>
</svg>