<?xml version="1.0" encoding="UTF-8"?>
<svg width="21px" height="18px" viewBox="0 0 21 18" version="1.1" xmlns="http://www.w3.org/2000/svg" xmlns:xlink="http://www.w3.org/1999/xlink">
    <title>Positivo inativo@1,5x</title>
    <g id="Teste-1---Mais-produtos" stroke="none" stroke-width="1" fill="none" fill-rule="evenodd">
        <g id="Positivo-inativo" fill="#665980">
            <path d="M17.1655,16 L10.1925,16 L5.9995,14.323 L5.9995,9 L6.9995,9 C7.3995,9 7.7615,8.762 7.9185,8.394 L10.6595,2 L11.9995,2 L11.9995,6 C11.9995,6.552 12.4475,7 12.9995,7 L18.8015,7 L17.1655,16 Z M3.9995,16 L1.9995,16 L1.9995,8 L3.9995,8 L3.9995,16 Z M20.7675,5.359 C20.5775,5.132 20.2965,5 19.9995,5 L13.9995,5 L13.9995,1 C13.9995,0.448 13.5525,0 12.9995,0 L9.9995,0 C9.6005,0 9.2385,0.238 9.0815,0.605 L6.3405,7 L5.9995,7 C5.9995,6.448 5.5525,6 4.9995,6 L0.9995,6 C0.4475,6 -0.0005,6.448 -0.0005,7 L-0.0005,17 C-0.0005,17.552 0.4475,18 0.9995,18 L4.9995,18 C5.5525,18 5.9995,17.552 5.9995,17 L5.9995,16.478 L9.6285,17.929 C9.7465,17.976 9.8725,18 9.9995,18 L17.9995,18 C18.4835,18 18.8975,17.654 18.9835,17.179 L20.9835,6.179 C21.0375,5.887 20.9575,5.587 20.7675,5.359 L20.7675,5.359 Z" id="Fill-2206"></path>
        </g>
    </g>
</svg>