<?xml version="1.0" encoding="UTF-8"?>
<svg width="20px" height="20px" viewBox="0 0 20 20" version="1.1" xmlns="http://www.w3.org/2000/svg" xmlns:xlink="http://www.w3.org/1999/xlink">
    <title>Tag Cupom</title>
    <g id="Symbols" stroke="none" stroke-width="1" fill="none" fill-rule="evenodd">
        <g id="Cupom-válido-com-cashback-2" transform="translate(-401.000000, -154.000000)" fill="#F8F8F8" fill-rule="nonzero">
            <g id="Group-2">
                <g transform="translate(96.000000, 40.000000)">
                    <g id="Group-4" transform="translate(24.000000, 112.000000)">
                        <g id="Group" transform="translate(281.000000, 0.000000)">
                            <g id="Tag-Cupom" transform="translate(0.000000, 2.000000)">
                                <path d="M12,20 C11.744,20 11.488,19.902 11.293,19.707 L0.293,8.707 C0.105,8.52 -4.54747351e-13,8.266 -4.54747351e-13,8 L-4.54747351e-13,1 C-4.54747351e-13,0.447 0.447,0 1,0 L8,0 C8.266,0 8.52,0.105 8.707,0.293 L19.707,11.293 C20.098,11.684 20.098,12.316 19.707,12.707 L12.707,19.707 C12.512,19.902 12.256,20 12,20 Z M2,7.586 L12,17.586 L17.586,12 L7.586,2 L2,2 L2,7.586 Z M5,7 C3.8954305,7 3,6.1045695 3,5 C3,3.8954305 3.8954305,3 5,3 C6.1045695,3 7,3.8954305 7,5 C7,6.1045695 6.1045695,7 5,7 Z" id="Shape"></path>
                            </g>
                        </g>
                    </g>
                </g>
            </g>
        </g>
    </g>
</svg>