<?xml version="1.0" encoding="UTF-8"?>
<svg width="198px" height="115px" viewBox="0 0 198 115" version="1.1" xmlns="http://www.w3.org/2000/svg" xmlns:xlink="http://www.w3.org/1999/xlink">
    <title>Group</title>
    <defs>
        <rect id="path-1" x="0" y="0" width="256" height="144"></rect>
        <linearGradient x1="33.3345352%" y1="-30.1135662%" x2="33.3345352%" y2="112.395882%" id="linearGradient-3">
            <stop stop-color="#FFD1BC" offset="0%"></stop>
            <stop stop-color="#FF4D7B" offset="100%"></stop>
        </linearGradient>
    </defs>
    <g id="Symbols" stroke="none" stroke-width="1" fill="none" fill-rule="evenodd">
        <g id="Cupom-inválido-com-cashback" transform="translate(-228.000000, -70.000000)">
            <g id="Rectangle">
                <g>
                    <g id="Group" transform="translate(192.000000, 48.000000)">
                        <mask id="mask-2" fill="white">
                            <use xlink:href="#path-1"></use>
                        </mask>
                        <g id="Mask"></g>
                        <g id="Group-4" mask="url(#mask-2)">
                            <g transform="translate(67.500000, 115.500000) rotate(-19.000000) translate(-67.500000, -115.500000) translate(47.000000, 95.000000)">
                                <path d="M16.9921494,1.16649096 C7.54914542,2.76682643 0.358074434,10.9858645 0.358074434,20.8844672 C0.358074434,31.9301622 9.31237944,40.8844672 20.3580744,40.8844672 C31.4037694,40.8844672 40.3580744,31.9301622 40.3580744,20.8844672 C40.3580744,9.8387722 31.4037694,0.884467192 20.3580744,0.884467192" id="Path" stroke="#A9A9A9" stroke-width="2" fill="none" stroke-linejoin="round" stroke-dasharray="7"></path>
                                <path d="M22.7411126,32.1017327 L22.7411126,29.9076018 C25.7225176,29.1491368 27.6564019,26.9008298 27.6564019,24.083674 C27.6564019,20.3726131 24.889873,19.1265634 22.1502035,18.1784821 C20.4311953,17.5825453 19.0613606,17.0136966 19.0613606,15.794735 C19.0613606,14.7653896 20.0820217,13.9256605 21.80103,13.9256605 C23.5468977,13.9256605 25.427063,14.6841255 26.5014432,15.5238546 L26.5014432,11.2710329 C25.534501,10.7292722 24.1378068,10.2687756 22.7411126,10.1062474 L22.7411126,8.10173269 L19.2493771,8.10173269 L19.2493771,10.3229517 C16.4559887,11.0543286 14.6564019,13.1671954 14.6564019,15.794735 C14.6564019,19.3703557 17.3154928,20.6164054 20.0283027,21.5644866 C21.8816085,22.1875115 23.2245837,22.7834483 23.2245837,24.110762 C23.2245837,25.4380758 21.9353275,26.2778049 20.0551622,26.2778049 C18.1481374,26.2778049 15.9456581,25.3568117 14.7101209,24.0024099 L14.7101209,28.5532 C15.7576415,29.2574889 17.3960713,29.9076018 19.2493771,30.097218 L19.2493771,32.1017327 L22.7411126,32.1017327 Z" id="$" stroke="none" fill="#A9A9A9" fill-rule="nonzero"></path>
                            </g>
                        </g>
                        <g id="Group-4-Copy-2" mask="url(#mask-2)">
                            <g transform="translate(50.262699, 35.458515) rotate(16.000000) translate(-50.262699, -35.458515) translate(37.262699, 22.458515)">
                                <path d="M10.9334773,0.93341016 C5.03159979,1.93361983 0.537180429,7.07051862 0.537180429,13.2571453 C0.537180429,20.1607047 6.13362106,25.7571453 13.0371804,25.7571453 C19.9407398,25.7571453 25.5371804,20.1607047 25.5371804,13.2571453 C25.5371804,6.35358593 19.9407398,0.757145306 13.0371804,0.757145306" id="Path" stroke="#A9A9A9" stroke-width="2" fill="none" stroke-linejoin="round" stroke-dasharray="5"></path>
                                <path d="M14.8107145,19.9744108 L14.8107145,18.603079 C16.6454252,18.1290383 17.8355079,16.7238465 17.8355079,14.9631241 C17.8355079,12.643711 16.1330285,11.86493 14.4470781,11.2723792 C13.3892269,10.8999187 12.5462517,10.5443882 12.5462517,9.78253722 C12.5462517,9.13919636 13.1743508,8.61436566 14.2322021,8.61436566 C15.3065823,8.61436566 16.463607,9.08840629 17.1247641,9.61323699 L17.1247641,6.95522345 C16.5297227,6.616623 15.6702186,6.32881261 14.8107145,6.22723248 L14.8107145,4.97441081 L12.6619542,4.97441081 L12.6619542,6.36267266 C10.9429459,6.81978327 9.83550787,8.14032503 9.83550787,9.78253722 C9.83550787,12.0173002 11.4718715,12.7960812 13.141293,13.388632 C14.2817889,13.7780225 15.1082351,14.150483 15.1082351,14.9800541 C15.1082351,15.8096253 14.3148467,16.334456 13.1578219,16.334456 C11.9842682,16.334456 10.6288963,15.7588352 9.86856572,14.9123341 L9.86856572,17.7565779 C10.5131938,18.1967584 11.5214583,18.603079 12.6619542,18.7215891 L12.6619542,19.9744108 L14.8107145,19.9744108 Z" id="$" stroke="none" fill="#A9A9A9" fill-rule="nonzero"></path>
                            </g>
                        </g>
                        <g id="Group-4-Copy" mask="url(#mask-2)">
                            <g transform="translate(215.500000, 47.500000) rotate(29.000000) translate(-215.500000, -47.500000) translate(198.000000, 30.000000)">
                                <path d="M14.3116187,0.256445778 C6.28506535,1.61673093 0.172655016,8.60291329 0.172655016,17.0167256 C0.172655016,26.4055663 7.78381427,34.0167256 17.172655,34.0167256 C26.5614958,34.0167256 34.172655,26.4055663 34.172655,17.0167256 C34.172655,7.62788483 26.5614958,0.0167255774 17.172655,0.0167255774" id="Path" stroke="#A9A9A9" stroke-width="2" fill="none" stroke-linejoin="round" stroke-dasharray="6"></path>
                                <path d="M18.0408048,26.8539415 L18.0408048,25.0254991 C20.5635321,24.3934449 22.1998957,22.5198557 22.1998957,20.1722259 C22.1998957,17.0796751 19.8589866,16.0413004 17.5408048,15.2512327 C16.0862594,14.7546187 14.9271685,14.2805781 14.9271685,13.2647767 C14.9271685,12.4069889 15.7908048,11.7072146 17.2453503,11.7072146 C18.722623,11.7072146 20.3135321,12.3392688 21.222623,13.0390431 L21.222623,9.49502502 C20.4044412,9.04355775 19.222623,8.65981057 18.0408048,8.52437039 L18.0408048,6.8539415 L15.0862594,6.8539415 L15.0862594,8.7049573 C12.722623,9.31443811 11.1998957,11.0751605 11.1998957,13.2647767 C11.1998957,16.2444607 13.4498957,17.2828354 15.7453503,18.0729031 C17.3135321,18.5920905 18.4498957,19.0887045 18.4498957,20.1947993 C18.4498957,21.3008941 17.3589866,22.0006684 15.7680775,22.0006684 C14.1544412,22.0006684 12.2908048,21.233174 11.2453503,20.1045058 L11.2453503,23.8968309 C12.1317139,24.4837383 13.5180775,25.0254991 15.0862594,25.1835126 L15.0862594,26.8539415 L18.0408048,26.8539415 Z" id="$" stroke="none" fill="#A9A9A9" fill-rule="nonzero"></path>
                            </g>
                        </g>
                        <g mask="url(#mask-2)">
                            <g transform="translate(82.000000, 15.000000)">
                                <g id="Group-4-Copy-7" transform="translate(23.647390, 23.717354)">
                                    <g id="Group-4" transform="translate(0.440763, 0.353308)">
                                        <path d="M20.6434833,0.35199604 C8.92437688,2.3493871 -3.63797881e-12,12.607632 -3.63797881e-12,24.9621545 C-3.63797881e-12,38.7483718 11.1126135,49.9243091 24.820717,49.9243091 C38.5288205,49.9243091 49.641434,38.7483718 49.641434,24.9621545 C49.641434,11.1759373 38.5288205,-7.27595761e-12 24.820717,-7.27595761e-12" id="Path" stroke="#A9A9A9" stroke-width="2" stroke-linejoin="round" stroke-dasharray="6"></path>
                                        <path d="M27.2447286,39.3612282 L27.2447286,36.6312513 C30.985808,35.6875556 33.4124541,32.8901719 33.4124541,29.3850165 C33.4124541,24.7676482 29.941002,23.217291 26.5032534,22.0376714 C24.3462346,21.2961962 22.6273603,20.5884244 22.6273603,19.0717706 C22.6273603,17.7910407 23.9080902,16.7462347 26.065109,16.7462347 C28.2558311,16.7462347 30.6150704,17.6899304 31.9632071,18.7347364 L31.9632071,13.4432998 C30.7498841,12.7692314 28.9973063,12.1962733 27.2447286,11.9940528 L27.2447286,9.49999988 L22.8632843,9.49999988 L22.8632843,12.2636802 C19.3581288,13.1736724 17.0999998,15.802539 17.0999998,19.0717706 C17.0999998,23.5206217 20.4366382,25.070979 23.8406834,26.2505986 C26.1662192,27.0257772 27.8513901,27.7672524 27.8513901,29.4187199 C27.8513901,31.0701874 26.233626,32.1149933 23.8743868,32.1149933 C21.4814441,32.1149933 18.7177638,30.9690771 17.1674066,29.2839062 L17.1674066,34.9460804 C18.4818399,35.8223693 20.5377484,36.6312513 22.8632843,36.8671752 L22.8632843,39.3612282 L27.2447286,39.3612282 Z" id="$" fill="#A9A9A9" fill-rule="nonzero"></path>
                                    </g>
                                </g>
                                <g id="Group-2" transform="translate(63.197217, 66.158061) rotate(-39.000000) translate(-63.197217, -66.158061) translate(28.697217, 9.658061)">
                                    <rect id="Rectangle" fill="#FF4C7B" x="30.2063977" y="65.1469235" width="8.16719937" height="16.1025514"></rect>
                                    <path d="M27.4839979,79.4603025 L41.0959969,79.4603025 L41.0959969,105.753992 C41.0959969,109.512842 38.0488471,112.559991 34.2899974,112.559991 C30.5311477,112.559991 27.4839979,109.512842 27.4839979,105.753992 L27.4839979,79.4603025 L27.4839979,79.4603025 Z" id="Rectangle-Copy" fill="url(#linearGradient-3)"></path>
                                    <ellipse id="Oval" stroke="#231653" stroke-width="4.08239963" cx="34.1687804" cy="34.031099" rx="34.0299974" ry="33.546982"></ellipse>
                                </g>
                                <g id="Group-4-Copy-10" opacity="0.508579799" transform="translate(98.647390, 28.717354)"></g>
                            </g>
                        </g>
                    </g>
                </g>
            </g>
        </g>
    </g>
</svg>