<?xml version="1.0" encoding="UTF-8"?>
<svg width="24px" height="24px" viewBox="0 0 24 24" version="1.1" xmlns="http://www.w3.org/2000/svg" xmlns:xlink="http://www.w3.org/1999/xlink">
    <title>918E4580-8BDC-4E8A-BEF0-6650FCC818EB</title>
    <defs>
        <linearGradient x1="50%" y1="0%" x2="50%" y2="100%" id="linearGradient-1">
            <stop stop-color="#ECECEC" offset="0%"></stop>
            <stop stop-color="#767676" offset="100%"></stop>
        </linearGradient>
    </defs>
    <g id="031222" stroke="none" stroke-width="1" fill="none" fill-rule="evenodd">
        <g id="Comportamento" transform="translate(-1023.000000, -1616.000000)" fill="url(#linearGradient-1)">
            <g id="Group-3-+-Group-5-+-Submarino-+-20%-de-volta-+-Group-+-Group-8-+-Group-18-+-nome-+-button-/-primary-/-medium-+-Group-8-Copy-+-Cupons-e-ofertas-Copy-+-Line-Copy-2-Mask-Copy" transform="translate(798.000000, 1438.000000)">
                <g id="Group-8" transform="translate(194.000000, 170.000000)">
                    <g id="Group-6">
                        <g id="interface-loading" transform="translate(26.000000, 3.000000)">
                            <path d="M15.5,5 L18.5,5 L18.5,9.5 L15.5,9.5 L15.5,5 Z M12.29987,5.8565 L14.54987,9.7535 L11.95187,11.2535 L9.70187,7.3565 L12.29987,5.8565 Z M7.3581665,9.70128065 L11.2551665,11.9517307 L9.7548665,14.5497307 L5.8578665,12.2992807 L7.3581665,9.70128065 Z M5.0015,15.5 L9.5015,15.5 L9.5015,18.5 L5.0015,18.5 L5.0015,15.5 Z M9.75643085,19.4486214 L11.2561309,22.0469214 L7.35868085,24.2964714 L5.85898085,21.6981714 L9.75643085,19.4486214 Z M11.95403,22.7437784 L14.55233,24.2434784 L12.30278,28.1409284 L9.70448,26.6412284 L11.95403,22.7437784 Z M15.5015,24.4955 L18.5015,24.4955 L18.5015,28.9955 L15.5015,28.9955 L15.5015,24.4955 Z M22.0512068,22.7400739 L24.2995571,26.6362247 L21.7012571,28.1356247 L19.4529068,24.2394739 L22.0512068,22.7400739 Z M24.2464835,19.447055 L28.1425835,21.698855 L26.6421341,24.2949563 L22.7460341,22.0431563 L24.2464835,19.447055 Z M24.4985,15.4955 L28.9985,15.4955 L28.9985,18.4955 L24.4985,18.4955 L24.4985,15.4955 Z M26.6388659,9.69653 L28.1385659,12.29483 L24.2411159,14.54438 L22.7414159,11.94608 L26.6388659,9.69653 Z M21.6985696,5.85472415 L24.2968696,7.35442415 L22.0473196,11.2518741 L19.4490196,9.75217415 L21.6985696,5.85472415 Z" id="Shape" transform="translate(17.000000, 16.997750) rotate(46.000000) translate(-17.000000, -16.997750) "></path>
                        </g>
                    </g>
                </g>
            </g>
        </g>
    </g>
</svg>