<svg width="192" height="160" viewBox="0 0 192 160" fill="none" xmlns="http://www.w3.org/2000/svg">
<mask id="mask0_31_347" style="mask-type:alpha" maskUnits="userSpaceOnUse" x="0" y="0" width="192" height="160">
<rect width="192" height="160" fill="white"/>
</mask>
<g mask="url(#mask0_31_347)">
<path fill-rule="evenodd" clip-rule="evenodd" d="M113.262 42.1349C111.448 30.8698 119.262 20.2912 130.715 18.507C142.169 16.7228 152.925 24.4086 154.739 35.6737C156.553 46.9387 148.738 57.5173 137.285 59.3015C134.176 59.7857 131.12 59.5725 128.279 58.7795C126.774 59.882 124.002 60.9555 119.962 62C120.196 59.0296 120.226 56.4768 120.052 54.3419C116.544 51.2792 114.053 47.0474 113.262 42.1349Z" fill="url(#paint0_linear_31_347)"/>
<path fill-rule="evenodd" clip-rule="evenodd" d="M145.374 37.1322C145.372 37.2276 145.369 37.3224 145.369 37.4169C145.122 42.0642 141.171 46.7863 133.516 51.5833C126.036 45.9407 122.288 41.0782 122.276 36.9959C122.274 36.9014 122.274 36.8064 122.276 36.7111C122.342 32.78 125.24 29.6451 128.75 29.7091C130.896 29.7482 132.773 30.9736 133.894 32.8183C135.075 31.0156 136.992 29.8594 139.137 29.8985C142.647 29.9625 145.44 33.2011 145.374 37.1322Z" fill="white"/>
<path fill-rule="evenodd" clip-rule="evenodd" d="M70.5478 127.017C74.5848 127.017 77.8574 130.302 77.8574 134.354C77.8574 138.407 74.5848 141.692 70.5478 141.692C66.5108 141.692 63.2382 138.407 63.2382 134.354C63.2382 130.302 66.5108 127.017 70.5478 127.017ZM112.14 127.017C116.177 127.017 119.449 130.302 119.449 134.354C119.449 138.407 116.177 141.692 112.14 141.692C108.103 141.692 104.83 138.407 104.83 134.354C104.83 130.302 108.103 127.017 112.14 127.017ZM36.382 43.0882L36.5269 43.1416L55.6484 51.097L55.7874 51.1708L55.9189 51.256L56.0424 51.3518L56.1489 51.4494C56.1903 51.4904 56.2296 51.5333 56.2668 51.5779L56.3718 51.7169L56.4429 51.8289L56.5165 51.9684L56.5781 52.1147L56.6272 52.2671L56.663 52.425L56.6793 52.5352L58.6187 68.6825H78.5722L80.9102 88.8611L66.712 88.8614L66.543 88.8695C65.6534 88.9548 64.9577 89.7071 64.9577 90.6224C64.9577 91.5378 65.6534 92.29 66.543 92.3754L66.712 92.3834L81.3172 92.3831L83.7111 113.047H63.9472L64.6647 119.015C64.7685 119.879 65.4596 120.542 66.3075 120.622L66.479 120.63H121.393C122.403 120.63 123.221 121.451 123.221 122.464C123.221 123.421 122.491 124.207 121.56 124.291L121.393 124.299H66.479C63.7892 124.299 61.5103 122.343 61.0719 119.704L61.0362 119.454L60.1366 111.969C60.0325 111.738 59.9745 111.482 59.9745 111.213C59.9745 111.097 59.9851 110.984 60.0055 110.874L53.2441 54.5887L48.3753 52.6517C38.8451 48.8222 34.0558 46.6383 34.0075 46.1L34 44.8363C34 43.5811 35.2199 42.7128 36.382 43.0882ZM105.191 92.3831L102.536 113.047H87.2446L84.8494 92.3831H105.191ZM108.729 92.3831L133.98 92.3833L126.2 111.894C125.943 112.537 125.351 112.975 124.674 113.039L124.503 113.047L106.074 113.047L108.729 92.3831ZM111.773 68.6825L140.732 68.6832C141.973 68.6832 142.837 69.8916 142.479 71.0543L142.428 71.1993L135.385 88.8613L109.181 88.8611L111.773 68.6825ZM82.1028 68.6825H108.235L105.643 88.8611H84.4408L82.1028 68.6825Z" fill="url(#paint1_linear_31_347)"/>
</g>
<defs>
<linearGradient id="paint0_linear_31_347" x1="176" y1="51.0624" x2="153.595" y2="8.04411" gradientUnits="userSpaceOnUse">
<stop stop-color="#FE0150"/>
<stop offset="1" stop-color="#FF80A2"/>
</linearGradient>
<linearGradient id="paint1_linear_31_347" x1="69.7704" y1="45.0649" x2="28.9501" y2="123.56" gradientUnits="userSpaceOnUse">
<stop stop-color="#FFD1BC"/>
<stop offset="1" stop-color="#FF4D7B"/>
</linearGradient>
</defs>
</svg>
