<?xml version="1.0" encoding="UTF-8"?>
<svg width="116px" height="89px" viewBox="0 0 116 89" version="1.1" xmlns="http://www.w3.org/2000/svg" xmlns:xlink="http://www.w3.org/1999/xlink">
    <title>3B0C554D-6359-4A67-9AAD-0C9C216E4FD8</title>
    <defs>
        <linearGradient x1="71.0158131%" y1="28.5672476%" x2="27.4649457%" y2="91.0081818%" id="linearGradient-1">
            <stop stop-color="#FFD1BC" offset="0%"></stop>
            <stop stop-color="#FF4D7B" offset="100%"></stop>
        </linearGradient>
    </defs>
    <g id="Page-1" stroke="none" stroke-width="1" fill="none" fill-rule="evenodd">
        <g id="já-esvaziei" transform="translate(-151.000000, -118.000000)">
            <g id="Group-7" transform="translate(22.000000, 23.000000)">
                <g id="Group-6" transform="translate(129.000000, 95.000000)">
                    <g id="Group-2" transform="translate(0.000000, 4.000000)">
                        <g id="Group-5">
                            <path d="M31.6875,72 C35.1392797,72 37.9375,74.7982203 37.9375,78.25 C37.9375,81.7017797 35.1392797,84.5 31.6875,84.5 C28.2357203,84.5 25.4375,81.7017797 25.4375,78.25 C25.4375,74.7982203 28.2357203,72 31.6875,72 Z M67.25,72 C70.7017797,72 73.5,74.7982203 73.5,78.25 C73.5,81.7017797 70.7017797,84.5 67.25,84.5 C63.7982203,84.5 61,81.7017797 61,78.25 C61,74.7982203 63.7982203,72 67.25,72 Z M2.47424554,0.510978352 L2.59811959,0.556511445 L18.9477381,7.3328168 L19.0665546,7.39570169 L19.1790357,7.46823164 L19.2846298,7.54985504 L19.3757275,7.63298338 C19.4110583,7.66787529 19.4446719,7.70439724 19.476463,7.74241074 L19.5662643,7.86078744 L19.6271038,7.95625096 L19.6899887,8.07506747 L19.7426769,8.19966776 L19.7846169,8.32950024 L19.8152569,8.46401328 L19.8291948,8.55782794 L21.4875,22.3118872 L38.5485,22.3118872 L40.5475427,39.4997258 L28.4075427,39.5 L28.2630827,39.5068666 C27.5024308,39.5795513 26.9075427,40.2203039 26.9075427,41 C26.9075427,41.7796961 27.5024308,42.4204487 28.2630827,42.4931334 L28.4075427,42.5 L40.8955427,42.4997258 L42.9425,60.1008872 L26.0435,60.1008872 L26.657068,65.1845081 C26.7457955,65.9203659 27.3367109,66.4853848 28.0616633,66.5531377 L28.2083319,66.5599614 L75.1623489,66.5599614 C76.0252939,66.5599614 76.7248489,67.2595165 76.7248489,68.1224614 C76.7248489,68.9374649 76.1008631,69.6067288 75.3045683,69.678576 L75.1623489,69.6849614 L28.2083319,69.6849614 C25.9084037,69.6849614 23.959906,68.0190903 23.5850366,65.7710297 L23.5545401,65.5586015 L22.7853617,59.1827646 C22.6963173,58.9863063 22.6467369,58.7681513 22.6467369,58.5384162 C22.6467369,58.440029 22.6558304,58.3437658 22.6732228,58.2504211 L16.892,10.307 L12.7289266,8.6570443 C4.58026573,5.39512892 0.485251999,3.53493484 0.443885427,3.07646208 L0.4375,2 C0.4375,0.930899025 1.48056342,0.191274645 2.47424554,0.510978352 Z M61.3085427,42.4997258 L59.0385,60.1008872 L45.9635,60.1008872 L43.9155427,42.4997258 L61.3085427,42.4997258 Z M64.3335427,42.4997258 L85.9245,42.4997258 L79.2718629,59.1191051 C79.0527343,59.6664986 78.5464153,60.0398923 77.9674147,60.0940984 L77.8212745,60.1009162 L62.0635,60.1009162 L64.3335427,42.4997258 Z M66.9365,22.3118872 L91.6974788,22.3125 C92.7588484,22.3125 93.497921,23.3417262 93.191825,24.3321635 L93.1480671,24.4556889 L87.1255,39.4998872 L64.7205427,39.4998872 L66.9365,22.3118872 Z M41.5675,22.3118872 L63.9115,22.3118872 L61.6955427,39.4997258 L43.5665427,39.4997258 L41.5675,22.3118872 Z" id="Shape" fill="url(#linearGradient-1)"></path>
                            <g id="Group-4"></g>
                        </g>
                    </g>
                    <g id="Group-3" transform="translate(71.000000, 0.000000)">
                        <path d="M19.5575737,3.38600419 C18.8869059,3.79758115 18.3228476,4.36163949 17.9112706,5.0323073 L2.88635685,29.5155196 C2.16418289,30.6923076 1.98736465,32.050408 2.28528692,33.2948549 C2.58320919,34.5393019 3.35587195,35.6700953 4.53265997,36.3922692 C5.31950807,36.875144 6.2246834,37.1307428 7.14788325,37.1307428 L37.1977108,37.1307428 C38.5784227,37.1307428 39.8284227,36.5710988 40.7332447,35.6662767 C41.6380667,34.7614547 42.1977108,33.5114547 42.1977108,32.1307428 C42.1977108,31.207543 41.9421119,30.3023677 41.4592372,29.5155196 L26.4343234,5.0323073 C25.7121494,3.85551928 24.581356,3.08285652 23.3369091,2.78493426 C22.0924622,2.48701199 20.7343618,2.66383022 19.5575737,3.38600419 Z" id="Path-2" stroke="#FFFFFF" stroke-width="2" fill="#FFCC33"></path>
                        <text id="!" font-family="HeroNew-Bold, Hero New" font-size="21" font-weight="bold" fill="#29174D">
                            <tspan x="19.4445" y="30">!</tspan>
                        </text>
                    </g>
                </g>
            </g>
        </g>
    </g>
</svg>