<svg width="37" height="25" viewBox="0 0 37 25" fill="none" xmlns="http://www.w3.org/2000/svg">
<path d="M36.7264 22.5276C32.3284 20.3468 32.5369 18.3061 32.5369 7.25506C32.5369 1.69564 29.4659 0.00747671 26.3949 0.00747671C23.1827 0.00747671 21.5082 1.90807 20.3224 3.39737C20.0422 3.74765 19.9032 3.9601 19.623 3.9601C19.3428 3.9601 19.1343 3.74765 18.8564 3.25499C17.5988 0.995063 15.6441 0.0187874 13.5505 0.0187874C8.6638 0.0187874 7.75595 3.81772 7.04984 3.81772C6.83913 3.81772 6.76964 3.6776 6.76964 3.39737V1.42672C6.76964 0.158145 6.14124 -0.264458 4.88445 0.158902L1.25754 1.42445C0.48867 1.70469 0 2.47985 0 3.53523V20.9186C0 21.8225 0.62989 22.4666 3.28171 22.4666C6.14423 22.4666 6.77189 21.8338 6.77189 20.9186V13.6687C6.77189 8.32175 7.74922 6.42115 9.84288 6.42115C12.0083 6.42115 12.8444 8.32175 12.8444 13.6687V20.9186C12.8444 21.8225 13.6827 22.4666 16.3368 22.4666C19.0581 22.4666 19.6163 21.8338 19.6163 20.9186V13.6687C19.6163 8.32175 20.5936 6.42115 22.7545 6.42115C24.9154 6.42115 25.756 8.32175 25.756 13.6687V16.6247C25.756 22.3265 29.0355 25 33.0143 25C35.0318 25 36.9932 24.0847 36.9932 23.0994C37.0106 22.9881 36.9945 22.8741 36.9469 22.7722C36.8994 22.6703 36.8226 22.5851 36.7264 22.5276V22.5276Z" fill="white"/>
</svg>
