<svg width="31" height="31" viewBox="0 0 31 31" fill="none" xmlns="http://www.w3.org/2000/svg">
<rect width="31" height="31" rx="8" fill="#FD9CBF"/>
<path d="M26.9587 21.7937C24.2872 20.5092 24.4139 19.3072 24.4139 12.7981C24.4139 9.52364 22.5484 8.52931 20.683 8.52931C18.7318 8.52931 17.7147 9.64876 16.9944 10.526C16.8242 10.7323 16.7397 10.8574 16.5695 10.8574C16.3993 10.8574 16.2727 10.7323 16.1039 10.4421C15.34 9.11099 14.1527 8.53597 12.8809 8.53597C9.91257 8.53597 9.36112 10.7735 8.93221 10.7735C8.80421 10.7735 8.762 10.691 8.762 10.526V9.36524C8.762 8.61805 8.38029 8.36914 7.61688 8.6185L5.41377 9.36391C4.94674 9.52896 4.6499 9.98553 4.6499 10.6072V20.8459C4.6499 21.3784 5.03252 21.7577 6.64332 21.7577C8.38211 21.7577 8.76337 21.385 8.76337 20.8459V16.5758C8.76337 13.4264 9.35703 12.307 10.6288 12.307C11.9441 12.307 12.452 13.4264 12.452 16.5758V20.8459C12.452 21.3784 12.9612 21.7577 14.5734 21.7577C16.2264 21.7577 16.5655 21.385 16.5655 20.8459V16.5758C16.5655 13.4264 17.1591 12.307 18.4717 12.307C19.7843 12.307 20.2949 13.4264 20.2949 16.5758V18.3169C20.2949 21.6752 22.287 23.2499 24.7039 23.2499C25.9293 23.2499 27.1208 22.7108 27.1208 22.1305C27.1313 22.0649 27.1215 21.9978 27.0927 21.9377C27.0638 21.8777 27.0171 21.8275 26.9587 21.7937V21.7937Z" fill="white"/>
</svg>
