<svg width="182" height="50" viewBox="0 0 182 50" fill="none" xmlns="http://www.w3.org/2000/svg">
<path d="M62.4765 28.3128C63.1718 24.1839 66.0854 20.9726 70.1247 20.9726C72.2105 20.9726 73.5018 22.2506 73.5018 24.315C73.5018 26.9693 69.4294 28.8043 63.0725 28.9026C62.609 28.9026 62.3772 28.6732 62.4765 28.3128ZM52.279 30.836C52.279 40.4699 58.669 46.2044 69.3301 46.2044C77.6735 46.2044 83.6 42.4033 83.6 36.8981C83.6 35.7512 83.1365 35.0631 82.4412 35.0631C81.6135 35.0631 79.6601 39.1919 71.8795 39.1919C67.9395 39.1919 64.9266 37.8157 63.4036 35.1614C63.1718 34.7026 63.4036 34.4733 63.8671 34.4733C75.5877 34.1128 83.3351 30.8032 83.3351 23.6924C83.3351 17.9579 78.5675 14.2878 70.5882 14.2878C59.0001 14.3206 52.279 20.4155 52.279 30.836ZM164.253 37.9467C168.789 30.9343 173.424 27.6246 180.609 22.8076C181.768 21.9884 182 21.3003 182 17.5319C182 15.6969 181.404 14.6483 180.377 14.6483H158.691C157.532 14.6483 156.704 15.2381 156.473 15.9262C155.546 18.3511 154.95 20.2845 154.95 20.7432C154.95 21.4314 155.546 21.8901 156.473 21.8901H166.902C167.366 21.8901 167.498 22.2506 167.034 22.5783C155.314 32.5727 154.155 36.5705 154.155 42.9931C154.155 44.8281 154.751 45.8767 155.777 45.8767H178.258C179.417 45.8767 180.113 45.2869 180.477 44.5988C180.708 44.14 180.841 43.6812 180.94 43.3208C181.867 40.5682 182 40.3388 182 39.749C182 39.0609 181.536 38.6021 180.477 38.6021H164.584C164.154 38.6349 164.022 38.3072 164.253 37.9467ZM120.45 36.0134C120.45 43.9434 124.986 46.2372 129.39 46.2372C134.488 46.2372 137.17 43.1242 138.561 40.9614C138.793 40.601 139.024 40.5027 139.256 40.5027C139.62 40.5027 139.852 40.7321 139.852 41.1908V44.0745C139.852 45.4507 141.706 46.27 144.62 46.27C147.533 46.27 149.255 45.4507 149.255 44.0745V16.2867C149.255 15.0087 148.659 14.3206 147.633 14.3206C147.268 14.3206 146.937 14.4517 146.573 14.55L141.243 16.2867C140.183 16.6472 139.488 17.663 139.488 19.3997V30.0823C139.488 35.2597 136.806 37.5535 134.157 37.5535C132.171 37.5535 130.217 36.0462 130.217 32.3761V16.3195C130.217 15.0415 129.621 14.3534 128.595 14.3534C128.231 14.3534 127.9 14.4844 127.536 14.5827L122.172 16.2867C121.112 16.6472 120.417 17.663 120.417 19.3997V36.0134H120.45ZM0 44.0417C0 45.418 1.8541 46.2372 4.76768 46.2372C7.68127 46.2372 9.76713 45.418 9.76713 44.0417V30.5083C9.76713 25.3308 12.0848 23.037 14.6341 23.037C16.6207 23.037 18.5741 24.5444 18.5741 28.2145V44.0417C18.5741 45.418 20.4282 46.2372 23.3418 46.2372C26.2554 46.2372 28.3412 45.418 28.3412 44.0417V30.5083C28.3412 25.1014 30.7913 23.037 33.2082 23.037C35.1948 23.037 37.1482 24.5444 37.1482 28.2145V37.9795C37.1482 45.4507 41.0882 49.9073 47.7099 49.9073C51.1864 49.9073 53.504 48.7604 53.504 47.1547C53.504 46.9253 53.504 46.5649 53.1398 46.3355C49.2992 44.5005 46.8822 42.436 46.8822 36.3411V24.5444C46.8822 16.6144 42.5781 14.3206 38.307 14.3206C33.3076 14.3206 30.6589 17.4336 29.2683 19.5963C28.8048 20.4155 27.5135 20.4155 27.2817 19.5963C25.8912 15.5658 22.6465 14.3206 19.4018 14.3206C14.4024 14.3206 12.0848 17.4336 10.6942 19.5963C10.2307 20.4155 9.40293 20.0551 9.40293 19.3669V16.2539C9.40293 14.976 8.80697 14.2878 7.7806 14.2878C7.4164 14.2878 7.08531 14.4189 6.72111 14.5172L1.75477 16.2867C0.695287 16.6144 0 17.663 0 19.3669V44.0417ZM111.511 14.55L106.18 16.2867C105.121 16.6472 104.426 17.663 104.426 19.3997V44.0417C104.426 45.418 106.28 46.2372 109.193 46.2372C112.107 46.2372 114.193 45.418 114.193 44.0417V16.2867C114.193 15.0087 113.597 14.3206 112.57 14.3206C112.206 14.3206 111.875 14.4517 111.511 14.55ZM104.459 5.83352C104.459 4.09679 105.154 3.08096 106.213 2.72051L111.544 0.983775C111.908 0.8527 112.239 0.754395 112.603 0.754395C113.663 0.754395 114.226 1.44253 114.226 2.72051V6.29228C114.226 8.02902 113.53 9.04485 112.471 9.4053L107.14 11.142C106.776 11.2731 106.445 11.3714 106.081 11.3714C105.021 11.3714 104.459 10.6833 104.459 9.4053V5.83352ZM62.4765 8.94654V11.2403C62.4765 12.1579 63.3042 12.7477 64.2313 12.5183L75.4883 9.07761C76.7796 8.71716 77.7066 7.93071 77.7066 6.55443V2.29452C77.7066 1.14762 76.5478 0.557783 75.6208 1.01654L63.9002 6.98043C63.0725 7.43919 62.4765 7.89795 62.4765 8.94654ZM95.5192 1.01654L90.1887 2.75328C89.1292 3.11373 88.4339 4.12956 88.4339 5.86629V44.0417C88.4339 45.418 90.288 46.2372 93.2016 46.2372C96.1152 46.2372 98.201 45.418 98.201 44.0417V2.75328C98.201 1.4753 97.6051 0.787163 96.5787 0.787163C96.2145 0.787163 95.8503 0.918237 95.5192 1.01654Z" fill="white"/>
</svg>
