<svg width="77" height="22" viewBox="0 0 77 22" fill="none" xmlns="http://www.w3.org/2000/svg">
<path d="M26.4324 12.6448C26.7265 10.8637 27.9592 9.47842 29.6681 9.47842C30.5506 9.47842 31.0969 10.0297 31.0969 10.9202C31.0969 12.0652 29.374 12.8568 26.6845 12.8992C26.4884 12.8992 26.3904 12.8003 26.4324 12.6448ZM22.118 13.7332C22.118 17.889 24.8215 20.3627 29.332 20.3627C32.8619 20.3627 35.3692 18.723 35.3692 16.3483C35.3692 15.8535 35.1731 15.5567 34.879 15.5567C34.5288 15.5567 33.7023 17.3377 30.4105 17.3377C28.7436 17.3377 27.4689 16.744 26.8246 15.5991C26.7265 15.4012 26.8246 15.3022 27.0207 15.3022C31.9794 15.1467 35.2572 13.7191 35.2572 10.6517C35.2572 8.17796 33.2401 6.59478 29.8642 6.59478C24.9616 6.60892 22.118 9.23812 22.118 13.7332ZM69.4918 16.8006C71.4108 13.7756 73.3719 12.3479 76.4116 10.27C76.9018 9.91662 76.9999 9.61977 76.9999 7.99419C76.9999 7.20261 76.7477 6.75027 76.3135 6.75027H67.1385C66.6482 6.75027 66.2981 7.00471 66.2 7.30156C65.8078 8.34758 65.5557 9.18157 65.5557 9.37947C65.5557 9.67632 65.8078 9.87421 66.2 9.87421H70.6124C70.8085 9.87421 70.8645 10.0297 70.6684 10.1711C65.7097 14.4824 65.2195 16.2069 65.2195 18.9775C65.2195 19.769 65.4716 20.2214 65.9058 20.2214H75.417C75.9073 20.2214 76.2014 19.9669 76.3555 19.6701C76.4536 19.4722 76.5096 19.2743 76.5516 19.1188C76.9438 17.9314 76.9999 17.8325 76.9999 17.578C76.9999 17.2812 76.8038 17.0833 76.3555 17.0833H69.6319C69.4498 17.0974 69.3937 16.9561 69.4918 16.8006ZM50.9597 15.9666C50.9597 19.3874 52.8788 20.3769 54.7418 20.3769C56.8989 20.3769 58.0336 19.034 58.6219 18.1011C58.7199 17.9456 58.818 17.9032 58.916 17.9032C59.0701 17.9032 59.1682 18.0021 59.1682 18.2V19.4439C59.1682 20.0376 59.9526 20.391 61.1853 20.391C62.4179 20.391 63.1463 20.0376 63.1463 19.4439V7.45705C63.1463 6.90576 62.8942 6.60892 62.46 6.60892C62.3059 6.60892 62.1658 6.66546 62.0117 6.70787L59.7565 7.45705C59.3083 7.61254 59.0141 8.05074 59.0141 8.79992V13.4081C59.0141 15.6415 57.8795 16.631 56.7589 16.631C55.9184 16.631 55.092 15.9807 55.092 14.3976V7.47118C55.092 6.9199 54.8398 6.62305 54.4056 6.62305C54.2515 6.62305 54.1114 6.6796 53.9574 6.722L51.6881 7.45705C51.2399 7.61254 50.9457 8.05074 50.9457 8.79992V15.9666H50.9597ZM0 19.4298C0 20.0235 0.784427 20.3769 2.0171 20.3769C3.24977 20.3769 4.13225 20.0235 4.13225 19.4298V13.5918C4.13225 11.3584 5.11278 10.369 6.19137 10.369C7.03183 10.369 7.85827 11.0192 7.85827 12.6024V19.4298C7.85827 20.0235 8.6427 20.3769 9.87537 20.3769C11.108 20.3769 11.9905 20.0235 11.9905 19.4298V13.5918C11.9905 11.2595 13.0271 10.369 14.0496 10.369C14.8901 10.369 15.7165 11.0192 15.7165 12.6024V16.8147C15.7165 20.0376 17.3835 21.96 20.185 21.96C21.6558 21.96 22.6363 21.4653 22.6363 20.7727C22.6363 20.6737 22.6363 20.5182 22.4822 20.4193C20.8573 19.6277 19.8348 18.7371 19.8348 16.108V11.0192C19.8348 7.5984 18.0138 6.60892 16.2068 6.60892C14.0917 6.60892 12.9711 7.95179 12.3827 8.88473C12.1866 9.23812 11.6403 9.23812 11.5423 8.88473C10.954 7.14607 9.58121 6.60892 8.20846 6.60892C6.09331 6.60892 5.11278 7.95179 4.52446 8.88473C4.32835 9.23812 3.97816 9.08263 3.97816 8.78578V7.44291C3.97816 6.89163 3.72603 6.59478 3.29179 6.59478C3.13771 6.59478 2.99763 6.65133 2.84355 6.69373L0.742404 7.45705C0.29416 7.5984 0 8.05074 0 8.78578V19.4298ZM47.1777 6.70787L44.9224 7.45705C44.4742 7.61254 44.18 8.05074 44.18 8.79992V19.4298C44.18 20.0235 44.9645 20.3769 46.1971 20.3769C47.4298 20.3769 48.3123 20.0235 48.3123 19.4298V7.45705C48.3123 6.90576 48.0601 6.60892 47.6259 6.60892C47.4718 6.60892 47.3317 6.66546 47.1777 6.70787ZM44.194 2.94783C44.194 2.19865 44.4882 1.76045 44.9364 1.60496L47.1917 0.855784C47.3458 0.799242 47.4858 0.756836 47.6399 0.756836C48.0882 0.756836 48.3263 1.05368 48.3263 1.60496V3.14573C48.3263 3.89491 48.0321 4.33311 47.5839 4.4886L45.3287 5.23778C45.1746 5.29432 45.0345 5.33673 44.8804 5.33673C44.4322 5.33673 44.194 5.03988 44.194 4.4886V2.94783ZM26.4324 4.2907V5.28019C26.4324 5.67598 26.7826 5.93042 27.1748 5.83147L31.9374 4.34724C32.4837 4.19175 32.8759 3.8525 32.8759 3.25881V1.4212C32.8759 0.926462 32.3856 0.672023 31.9934 0.86992L27.0347 3.44257C26.6845 3.64047 26.4324 3.83837 26.4324 4.2907ZM40.412 0.86992L38.1568 1.6191C37.7085 1.77459 37.4144 2.21279 37.4144 2.96197V19.4298C37.4144 20.0235 38.1988 20.3769 39.4314 20.3769C40.6641 20.3769 41.5466 20.0235 41.5466 19.4298V1.6191C41.5466 1.06782 41.2945 0.770971 40.8602 0.770971C40.7061 0.770971 40.5521 0.827513 40.412 0.86992Z" fill="#2A2A2A"/>
</svg>
