<svg width="67" height="45" viewBox="0 0 67 45" fill="none" xmlns="http://www.w3.org/2000/svg">
<path d="M66.5046 40.5498C58.5406 36.6243 58.9181 32.951 58.9181 13.0591C58.9181 3.05216 53.3571 0.0134581 47.7961 0.0134581C41.9794 0.0134581 38.9472 3.43453 36.8 6.11526C36.2926 6.74578 36.0409 7.12818 35.5335 7.12818C35.0261 7.12818 34.6486 6.74577 34.1453 5.85898C31.8682 1.79111 28.3286 0.0338173 24.5374 0.0338173C15.6885 0.0338173 14.0446 6.8719 12.7659 6.8719C12.3844 6.8719 12.2585 6.61967 12.2585 6.11526V2.56809C12.2585 0.284661 11.1206 -0.476024 8.84482 0.286023L2.27717 2.56402C0.884888 3.06843 0 4.46372 0 6.36342V37.6534C0 39.2806 1.14061 40.4399 5.94255 40.4399C11.126 40.4399 12.2626 39.3009 12.2626 37.6534V24.6037C12.2626 14.9791 14.0324 11.5581 17.8236 11.5581C21.7447 11.5581 23.2588 14.9791 23.2588 24.6037V37.6534C23.2588 39.2806 24.7769 40.4399 29.5829 40.4399C34.5106 40.4399 35.5214 39.3009 35.5214 37.6534V24.6037C35.5214 14.9791 37.2911 11.5581 41.2041 11.5581C45.1171 11.5581 46.6393 14.9791 46.6393 24.6037V29.9245C46.6393 40.1877 52.5778 45 59.7827 45C63.4359 45 66.9877 43.3525 66.9877 41.5789C67.0192 41.3786 66.99 41.1735 66.9039 40.99C66.8178 40.8065 66.6787 40.6531 66.5046 40.5498Z" fill="white"/>
</svg>
