<svg width="260" height="71" viewBox="0 0 260 71" fill="none" xmlns="http://www.w3.org/2000/svg">
<path d="M89.2522 39.9575C90.2454 34.0476 94.4077 29.451 100.178 29.451C103.158 29.451 105.003 31.2803 105.003 34.2352C105.003 38.0345 99.1849 40.6611 90.1036 40.8018C89.4414 40.8018 89.1103 40.4735 89.2522 39.9575ZM74.6842 43.5691C74.6842 57.3589 83.8129 65.5672 99.043 65.5672C110.962 65.5672 119.429 60.1263 119.429 52.2464C119.429 50.6048 118.766 49.6198 117.773 49.6198C116.591 49.6198 113.8 55.5297 102.685 55.5297C97.0564 55.5297 92.7523 53.5597 90.5765 49.7605C90.2454 49.1038 90.5765 48.7755 91.2387 48.7755C107.982 48.2596 119.05 43.5222 119.05 33.3441C119.05 25.1359 112.239 19.8826 100.84 19.8826C84.2858 19.9295 74.6842 28.6537 74.6842 43.5691ZM234.648 53.7473C241.128 43.7099 247.749 38.9725 258.013 32.0777C259.669 30.9051 260 29.9201 260 24.5261C260 21.8995 259.148 20.3985 257.682 20.3985H226.701C225.046 20.3985 223.864 21.2428 223.532 22.2278C222.208 25.6987 221.357 28.466 221.357 29.1227C221.357 30.1077 222.208 30.7643 223.532 30.7643H238.432C239.094 30.7643 239.283 31.2803 238.621 31.7493C221.877 46.0551 220.222 51.7774 220.222 60.9706C220.222 63.5972 221.073 65.0981 222.539 65.0981H254.655C256.31 65.0981 257.304 64.2538 257.824 63.2688C258.155 62.6122 258.344 61.9555 258.486 61.4396C259.81 57.4997 260 57.1713 260 56.327C260 55.3421 259.337 54.6854 257.824 54.6854H235.121C234.506 54.7323 234.317 54.2633 234.648 53.7473ZM172.072 50.98C172.072 62.3308 178.552 65.6141 184.842 65.6141C192.126 65.6141 195.957 61.1582 197.944 58.0625C198.275 57.5466 198.606 57.4058 198.937 57.4058C199.458 57.4058 199.789 57.7342 199.789 58.3908V62.5184C199.789 64.4884 202.437 65.661 206.6 65.661C210.762 65.661 213.221 64.4884 213.221 62.5184V22.7437C213.221 20.9145 212.37 19.9295 210.904 19.9295C210.384 19.9295 209.911 20.1171 209.39 20.2578L201.775 22.7437C200.262 23.2597 199.268 24.7137 199.268 27.1996V42.4904C199.268 49.9012 195.437 53.1845 191.653 53.1845C188.815 53.1845 186.025 51.0269 186.025 45.7736V22.7907C186.025 20.9614 185.173 19.9764 183.707 19.9764C183.187 19.9764 182.714 20.164 182.194 20.3047L174.531 22.7437C173.018 23.2597 172.024 24.7137 172.024 27.1996V50.98H172.072ZM0 62.4715C0 64.4415 2.64871 65.6141 6.81098 65.6141C10.9732 65.6141 13.953 64.4415 13.953 62.4715V43.1001C13.953 35.6893 17.2639 32.406 20.9059 32.406C23.7438 32.406 26.5344 34.5636 26.5344 39.8168V62.4715C26.5344 64.4415 29.1831 65.6141 33.3454 65.6141C37.5077 65.6141 40.4875 64.4415 40.4875 62.4715V43.1001C40.4875 35.3609 43.9876 32.406 47.4403 32.406C50.2783 32.406 53.0689 34.5636 53.0689 39.8168V53.7942C53.0689 64.4883 58.6974 70.8673 68.1571 70.8673C73.1234 70.8673 76.4343 69.2257 76.4343 66.9274C76.4343 66.599 76.4343 66.0831 75.914 65.7548C70.4274 63.1281 66.9746 60.1732 66.9746 51.449V34.5636C66.9746 23.2128 60.8258 19.9295 54.7243 19.9295C47.5822 19.9295 43.7984 24.3854 41.8118 27.4811C41.1497 28.6537 39.305 28.6537 38.9739 27.4811C36.9874 21.7119 32.3521 19.9295 27.7169 19.9295C20.5748 19.9295 17.2639 24.3854 15.2774 27.4811C14.6152 28.6537 13.4328 28.1377 13.4328 27.1527V22.6968C13.4328 20.8676 12.5814 19.8826 11.1151 19.8826C10.5949 19.8826 10.1219 20.0702 9.60159 20.2109L2.50682 22.7437C0.993268 23.2128 0 24.7137 0 27.1527V62.4715ZM159.301 20.2578L151.686 22.7437C150.173 23.2597 149.179 24.7137 149.179 27.1996V62.4715C149.179 64.4415 151.828 65.6141 155.99 65.6141C160.153 65.6141 163.132 64.4415 163.132 62.4715V22.7437C163.132 20.9145 162.281 19.9295 160.815 19.9295C160.294 19.9295 159.821 20.1171 159.301 20.2578ZM149.227 7.78136C149.227 5.29544 150.22 3.84142 151.733 3.32547L159.348 0.839559C159.869 0.651943 160.342 0.51123 160.862 0.51123C162.376 0.51123 163.18 1.49622 163.18 3.32547V8.43801C163.18 10.9239 162.186 12.378 160.673 12.8939L153.058 15.3798C152.538 15.5674 152.065 15.7081 151.544 15.7081C150.031 15.7081 149.227 14.7232 149.227 12.8939V7.78136ZM89.2522 12.2372V15.5205C89.2522 16.8338 90.4346 17.6781 91.759 17.3498L107.84 12.4249C109.685 11.9089 111.009 10.7832 111.009 8.81325V2.71572C111.009 1.07408 109.354 0.229806 108.03 0.886463L91.286 9.423C90.1036 10.0797 89.2522 10.7363 89.2522 12.2372ZM136.456 0.886463L128.841 3.37238C127.327 3.88832 126.334 5.34235 126.334 7.82826V62.4715C126.334 64.4415 128.983 65.6141 133.145 65.6141C137.307 65.6141 140.287 64.4415 140.287 62.4715V3.37238C140.287 1.54312 139.436 0.558135 137.97 0.558135C137.449 0.558135 136.929 0.745751 136.456 0.886463Z" fill="#FD9CBF"/>
</svg>
