<svg width="44" height="44" viewBox="0 0 40 40" fill="none" xmlns="http://www.w3.org/2000/svg">
<rect width="40" height="40" rx="12" fill="#FD9CBF"/>
<path d="M32.8004 27.2199C29.591 25.6497 29.7431 24.1804 29.7431 16.2236C29.7431 12.2209 27.5021 11.0054 25.2611 11.0054C22.9171 11.0054 21.6952 12.3738 20.8298 13.4461C20.6254 13.6983 20.524 13.8513 20.3195 13.8513C20.115 13.8513 19.9629 13.6983 19.7601 13.3436C18.8424 11.7164 17.416 11.0135 15.8882 11.0135C12.3222 11.0135 11.6597 13.7488 11.1445 13.7488C10.9907 13.7488 10.94 13.6479 10.94 13.4461V12.0272C10.94 11.1139 10.4814 10.8096 9.56433 11.1144L6.91766 12.0256C6.3566 12.2274 6 12.7855 6 13.5454V26.0614C6 26.7122 6.45965 27.176 8.39476 27.176C10.4836 27.176 10.9416 26.7204 10.9416 26.0614V20.8415C10.9416 16.9917 11.6548 15.6232 13.1826 15.6232C14.7628 15.6232 15.3729 16.9917 15.3729 20.8415V26.0614C15.3729 26.7122 15.9847 27.176 17.9215 27.176C19.9073 27.176 20.3146 26.7204 20.3146 26.0614V20.8415C20.3146 16.9917 21.0278 15.6232 22.6046 15.6232C24.1815 15.6232 24.7949 16.9917 24.7949 20.8415V22.9698C24.7949 27.0751 27.1881 29 30.0915 29C31.5637 29 32.995 28.341 32.995 27.6316C33.0077 27.5515 32.996 27.4694 32.9613 27.396C32.9266 27.3226 32.8705 27.2613 32.8004 27.2199V27.2199Z" fill="white"/>
</svg>
