<?xml version="1.0" encoding="UTF-8"?>
<svg width="48px" height="48px" viewBox="0 0 48 48" version="1.1" xmlns="http://www.w3.org/2000/svg" xmlns:xlink="http://www.w3.org/1999/xlink">
    <!-- Generator: sketchtool 49.3 (51167) - http://www.bohemiancoding.com/sketch -->
    <title>16C38003-88A5-4806-9B37-C709E905A385</title>
    <desc>Created with sketchtool.</desc>
    <defs></defs>
    <g id="Page-1" stroke="none" stroke-width="1" fill="none" fill-rule="evenodd">
        <g id="Completo" transform="translate(-164.000000, -260.000000)">
            <g id="Group-3" transform="translate(32.000000, 49.000000)">
                <g id="large_icon_check_circle" transform="translate(132.000000, 211.000000)">
                    <rect id="area" fill-opacity="0.01" fill="#FFFFFF" x="0" y="0" width="48" height="48"></rect>
                    <path d="M24,43 C13.5065898,43 5,34.4934102 5,24 C5,13.5065898 13.5065898,5 24,5 C34.4934102,5 43,13.5065898 43,24 C43,34.4934102 34.4934102,43 24,43 Z M24,41 C33.3888407,41 41,33.3888407 41,24 C41,14.6111593 33.3888407,7 24,7 C14.6111593,7 7,14.6111593 7,24 C7,33.3888407 14.6111593,41 24,41 Z M21.8723952,28.4581816 L31.1862665,15.4187618 L32.8137335,16.5812382 L22.1276048,31.5418184 L15.2928932,24.7071068 L16.7071068,23.2928932 L21.8723952,28.4581816 Z" id="shape" fill="#43A496" fill-rule="nonzero"></path>
                </g>
            </g>
        </g>
    </g>
</svg>