<svg width="153" height="161" viewBox="0 0 153 161" fill="none" xmlns="http://www.w3.org/2000/svg">
<path fill-rule="evenodd" clip-rule="evenodd" d="M20.668 57.0308H147.447L143.583 120.492C143.15 127.614 137.247 133.169 130.111 133.169H38.0342C30.9008 133.169 24.9991 127.618 24.5622 120.498L20.668 57.0308Z" fill="#FFD7E9"/>
<mask id="mask0_668_595" style="mask-type:alpha" maskUnits="userSpaceOnUse" x="20" y="57" width="128" height="77">
<path fill-rule="evenodd" clip-rule="evenodd" d="M20.668 57.0308H147.447L143.583 120.492C143.15 127.614 137.247 133.169 130.111 133.169H38.0342C30.9008 133.169 24.9991 127.618 24.5622 120.498L20.668 57.0308Z" fill="white"/>
</mask>
<g mask="url(#mask0_668_595)">
</g>
<path fill-rule="evenodd" clip-rule="evenodd" d="M72.0869 21.8555H96.848V35.1929H72.0869V21.8555Z" fill="#2A2A2A"/>
<path fill-rule="evenodd" clip-rule="evenodd" d="M96.5518 21.9104C96.5518 21.9104 115.621 -3.29373 127.712 0.495137C139.803 4.284 143.14 31.645 139.803 35.0782H96.5518V21.9104Z" fill="#767676"/>
<mask id="mask1_668_595" style="mask-type:alpha" maskUnits="userSpaceOnUse" x="96" y="0" width="46" height="36">
<path fill-rule="evenodd" clip-rule="evenodd" d="M96.5518 21.9104C96.5518 21.9104 115.621 -3.29373 127.712 0.495137C139.803 4.284 143.14 31.645 139.803 35.0782H96.5518V21.9104Z" fill="white"/>
</mask>
<g mask="url(#mask1_668_595)">
<path fill-rule="evenodd" clip-rule="evenodd" d="M95.6113 35.1811C95.6113 35.1811 123.904 11.9143 133.796 15.8442C143.688 19.7741 142.711 36.4041 142.711 36.4041H96.8948L95.6113 35.1811Z" fill="#2A2A2A"/>
</g>
<path fill-rule="evenodd" clip-rule="evenodd" d="M72.1641 21.9104C72.1641 21.9104 53.0951 -3.29373 41.0039 0.495137C28.9127 4.284 25.5762 31.645 28.9127 35.0782H72.1641V21.9104Z" fill="#767676"/>
<mask id="mask2_668_595" style="mask-type:alpha" maskUnits="userSpaceOnUse" x="27" y="0" width="46" height="36">
<path fill-rule="evenodd" clip-rule="evenodd" d="M72.1641 21.9104C72.1641 21.9104 53.0951 -3.29373 41.0039 0.495137C28.9127 4.284 25.5762 31.645 28.9127 35.0782H72.1641V21.9104Z" fill="white"/>
</mask>
<g mask="url(#mask2_668_595)">
<path fill-rule="evenodd" clip-rule="evenodd" d="M73.1045 35.1811C73.1045 35.1811 44.8116 11.9143 34.9195 15.8442C25.0274 19.7741 26.0049 36.4041 26.0049 36.4041H71.821L73.1045 35.1811Z" fill="#2A2A2A"/>
</g>
<path fill-rule="evenodd" clip-rule="evenodd" d="M16 42.0122C16 37.5939 19.5817 34.0122 24 34.0122H144.434C148.852 34.0122 152.434 37.5939 152.434 42.0122V54C152.434 58.4183 148.852 62 144.434 62H24C19.5817 62 16 58.4183 16 54V42.0122Z" fill="#FFD7E9"/>
<mask id="mask3_668_595" style="mask-type:alpha" maskUnits="userSpaceOnUse" x="16" y="34" width="137" height="28">
<path fill-rule="evenodd" clip-rule="evenodd" d="M16 48.0061C16 40.2775 22.2653 34.0122 29.9939 34.0122H138.44C146.169 34.0122 152.434 40.2775 152.434 48.0061C152.434 55.7347 146.169 62 138.44 62H29.9939C22.2653 62 16 55.7347 16 48.0061Z" fill="white"/>
</mask>
<g mask="url(#mask3_668_595)">
</g>
<rect x="71" y="34" width="27" height="99" fill="#FD9CBF"/>
<ellipse cx="44.2723" cy="117.212" rx="31.2508" ry="30.9093" fill="white"/>
<path fill-rule="evenodd" clip-rule="evenodd" d="M0.534958 121.235C-3.17694 98.6853 12.8126 77.5099 36.2486 73.9383C59.6846 70.3668 81.6923 85.7517 85.4042 108.301C89.1161 130.851 73.1266 152.027 49.6906 155.598C43.3305 156.567 37.0756 156.14 31.263 154.553C28.1845 156.76 22.5119 158.909 14.2452 161C14.7239 155.054 14.7856 149.944 14.4301 145.67C7.25162 139.54 2.15365 131.069 0.534958 121.235ZM66.6007 111.221C66.5974 111.412 66.5907 111.602 66.5909 111.791C66.0857 121.094 58.0015 130.546 42.3383 140.148C27.0322 128.853 19.3623 119.12 19.3389 110.948C19.3354 110.759 19.3352 110.569 19.3385 110.378C19.4729 102.509 25.404 96.2339 32.5859 96.362C36.9762 96.4403 40.8175 98.8932 43.1099 102.586C45.5269 98.9772 49.4497 96.6627 53.84 96.7411C61.0219 96.8692 66.7351 103.352 66.6007 111.221Z" fill="#F34986"/>
</svg>
