<svg width="108" height="110" viewBox="0 0 108 110" fill="none" xmlns="http://www.w3.org/2000/svg">
<path fill-rule="evenodd" clip-rule="evenodd" d="M12.9001 46.2623C16.062 23.4499 37.3246 7.62053 60.3915 10.9065C83.4583 14.1925 99.5945 35.3495 96.4326 58.162C93.2706 80.9744 72.008 96.8038 48.9412 93.5178C42.6813 92.626 36.9318 90.4181 31.9399 87.2181C28.3976 88.4623 22.4356 88.9055 14.0541 88.5479C16.2569 82.9511 17.8214 78.041 18.7475 73.8175C13.8122 65.8437 11.5212 56.2104 12.9001 46.2623Z" fill="#FD9CBF"/>
<path d="M77.9412 49.5109C75.1673 48.5304 73.2901 45.8967 73.2901 42.9548C73.3462 42.4784 73.122 42.0863 72.7577 41.7501C72.4495 41.4978 71.9733 41.3858 71.581 41.4418C69.2273 41.778 66.9859 41.1056 65.2767 39.7327C63.5675 38.3598 62.3626 36.2866 62.1665 33.877C62.1385 33.4567 61.8863 33.0644 61.522 32.8124C61.1578 32.5881 60.7095 32.5321 60.2892 32.7002C56.4785 34.0731 52.8921 31.6635 51.4632 28.3856C51.1829 27.7691 50.5385 27.4329 49.8661 27.5731C44.4863 28.7779 39.6483 32.155 36.3421 36.4138C28.6929 46.248 29.4774 59.7807 38.0513 68.3822C47.3818 77.6839 62.4281 77.6839 71.7306 68.3822C76.0454 64.0674 78.8941 57.9163 78.8941 51.3603C78.8378 50.4356 78.8098 49.8193 77.9412 49.5109Z" fill="white"/>
<path d="M48.2631 57.6176C47.5701 57.0078 46.6275 56.6475 45.6297 56.6475C43.3288 56.6475 41.4717 58.5046 41.4717 60.8055C41.4717 61.8865 41.8876 62.8567 42.5528 63.5775C43.3011 64.4368 44.4099 64.9635 45.6297 64.9635C47.9305 64.9635 49.7877 63.1061 49.7877 60.8055C49.7876 59.5025 49.2055 58.3661 48.2631 57.6176Z" fill="#FD9CBF"/>
<path d="M60.2275 56.3505C57.9599 56.3505 56.1152 54.552 56.1152 52.341C56.1152 50.1301 57.9599 48.3315 60.2275 48.3315C62.4952 48.3315 64.3398 50.1301 64.3398 52.341C64.3398 54.552 62.4953 56.3505 60.2275 56.3505Z" fill="#FD9CBF"/>
<path d="M58.8568 67.0423C57.3455 67.0423 56.1152 65.8428 56.1152 64.3693C56.1152 62.8958 57.3455 61.6963 58.8568 61.6963C60.3681 61.6963 61.5983 62.8958 61.5983 64.3693C61.5983 65.8428 60.3681 67.0423 58.8568 67.0423Z" fill="#FD9CBF"/>
<path d="M48.7484 48.3317C47.0293 48.3317 45.6299 46.9324 45.6299 45.2132C45.6299 43.4941 47.0293 42.0947 48.7484 42.0947C50.4675 42.0947 51.8669 43.4941 51.8669 45.2132C51.8669 46.9324 50.4675 48.3317 48.7484 48.3317Z" fill="#FD9CBF"/>
<circle cx="69.5385" cy="57.687" r="1.0395" fill="#FD9CBF"/>
<circle cx="40.4331" cy="51.4501" r="1.0395" fill="#FD9CBF"/>
</svg>
