<svg width="197" height="87" viewBox="0 0 197 87" fill="none" xmlns="http://www.w3.org/2000/svg">
<mask id="mask0" mask-type="alpha" maskUnits="userSpaceOnUse" x="4" y="3" width="189" height="79">
<rect x="4" y="3" width="189" height="79" fill="white"/>
</mask>
<g mask="url(#mask0)">
<rect x="-210" y="144.548" width="588.951" height="26.9947" transform="rotate(-24 -210 144.548)" fill="url(#paint0_linear)"/>
<rect x="-210" y="144.548" width="588.951" height="26.9947" transform="rotate(-24 -210 144.548)" fill="#86E5FF"/>
<rect x="-210" y="144.548" width="588.951" height="26.9947" transform="rotate(-24 -210 144.548)" fill="url(#paint1_linear)"/>
<path d="M12.9242 65.4627C15.314 64.3987 16.3333 61.7906 15.2303 59.3131C14.1272 56.8355 11.5069 55.8479 9.11711 56.9119C6.72727 57.9759 5.68602 60.5938 6.78909 63.0713C7.89704 65.5598 10.5234 66.5316 12.9242 65.4627ZM12.1969 63.8293C10.9472 64.3857 9.34956 63.9542 8.59791 62.266C7.85115 60.5887 8.59951 59.1127 9.84924 58.5563C11.077 58.0096 12.6747 58.4411 13.4214 60.1184C14.1682 61.7957 13.4247 63.2826 12.1969 63.8293ZM18.3733 62.8133L20.1601 62.0177L19.1303 59.7046L19.8648 59.3776C22.0902 58.3868 22.7225 56.5027 21.9855 54.8474C21.2046 53.0934 19.3912 52.5609 17.1439 53.5615L14.7321 54.6353L18.3733 62.8133ZM19.2338 57.7539L18.4226 58.1151L17.2463 55.4731L18.0466 55.1168C18.9784 54.7019 19.8253 54.8634 20.206 55.7185C20.5867 56.5736 20.1546 57.3439 19.2338 57.7539ZM29.3894 58.1319C31.7792 57.0679 32.7986 54.4598 31.6955 51.9823C30.5924 49.5047 27.9722 48.5171 25.5823 49.5811C23.1925 50.6452 22.1513 53.263 23.2543 55.7405C24.3623 58.229 26.9886 59.2008 29.3894 58.1319ZM28.6622 56.4985C27.4124 57.0549 25.8148 56.6234 25.0631 54.9352C24.3164 53.2579 25.0647 51.7819 26.3145 51.2255C27.5423 50.6789 29.1399 51.1103 29.8867 52.7876C30.6334 54.4649 29.89 55.9518 28.6622 56.4985ZM37.2077 50.8023C38.5838 49.7036 38.606 48.3669 38.1716 47.3913C37.4102 45.6811 35.7578 45.274 33.7845 46.1526L31.1974 47.3045L34.8385 55.4825L36.6254 54.6869L35.3466 51.8148L35.4233 51.7806L38.8727 53.6864L41.0214 52.7297L37.2077 50.8023ZM34.7316 50.4335L33.7115 48.1423L34.4679 47.8055C35.3559 47.4102 36.0907 47.5559 36.4226 48.3014C36.7447 49.0249 36.4198 49.6818 35.4551 50.1113L34.7316 50.4335ZM43.6791 51.5464L45.455 50.7557L42.5412 44.2111L44.931 43.1471L44.2038 41.5136L37.6372 44.4373L38.3644 46.0707L40.7652 45.0018L43.6791 51.5464ZM52.2983 47.9322C54.4141 46.9902 55.1048 45.0013 54.2116 42.9952L52.0055 38.0401L50.2076 38.8405L52.4138 43.7956C52.9165 44.9248 52.5796 45.8498 51.571 46.2988C50.5844 46.7381 49.7045 46.3548 49.2066 45.2367L46.9956 40.2706L45.2087 41.0662L47.4148 46.0213C48.308 48.0274 50.2044 48.8645 52.2983 47.9322ZM60.7281 34.1565L59.0289 34.9131L61.3668 40.1641L61.3558 40.169L55.4112 36.5238L53.6792 37.2949L57.3203 45.473L59.0304 44.7116L56.6535 39.3728L56.6644 39.3679L62.681 43.0863L64.3692 42.3346L60.7281 34.1565ZM66.1417 41.5454L67.9286 40.7499L64.2875 32.5718L62.5006 33.3674L66.1417 41.5454ZM68.4773 30.7064L66.0656 31.7801L69.7067 39.9582L72.1184 38.8844C74.7494 37.713 75.8469 35.2803 74.7487 32.8138C73.6554 30.3582 71.1412 29.5203 68.4773 30.7064ZM68.5797 32.618L69.2813 32.3056C70.8051 31.6272 72.237 32.0405 72.9447 33.6301C73.6427 35.1977 72.9966 36.5494 71.4728 37.2278L70.7712 37.5402L68.5797 32.618ZM84.9959 33.151L78.2524 26.3542L76.1914 27.2718L76.774 36.8116L78.6376 35.9819L78.4509 33.6743L81.5095 32.3126L83.1213 33.9856L84.9959 33.151ZM78.0517 28.6766L80.3512 31.0681L78.2902 31.9857L78.0517 28.6766ZM84.6749 23.4947L82.2631 24.5685L85.9043 32.7466L88.316 31.6728C90.947 30.5014 92.0444 28.0687 90.9463 25.6021C89.8529 23.1465 87.3388 22.3087 84.6749 23.4947ZM84.7773 25.4064L85.4789 25.094C87.0027 24.4155 88.4346 24.8289 89.1423 26.4184C89.8403 27.9861 89.1942 29.3377 87.6704 30.0162L86.9688 30.3285L84.7773 25.4064ZM94.1047 29.0955L99.2352 26.8112L98.5226 25.2107L95.179 26.6994L94.3835 24.9125L97.442 23.5507L96.7831 22.0708L93.7246 23.4325L92.968 21.7333L96.3116 20.2447L95.5941 18.6332L90.4636 20.9174L94.1047 29.0955ZM102.165 12.4894L101.785 14.9704L103.123 14.3749L103.897 11.7183L102.165 12.4894ZM106.833 23.6519C108.948 22.7099 109.639 20.721 108.746 18.7149L106.54 13.7598L104.742 14.5603L106.948 19.5153C107.451 20.6445 107.114 21.5695 106.105 22.0185C105.119 22.4578 104.239 22.0746 103.741 20.9564L101.53 15.9904L99.7431 16.7859L101.949 21.741C102.842 23.7472 104.739 24.5842 106.833 23.6519ZM115.262 9.87627L113.563 10.6328L115.901 15.8839L115.89 15.8887L109.946 12.2435L108.214 13.0147L111.855 21.1927L113.565 20.4313L111.188 15.0925L111.199 15.0877L117.215 18.806L118.904 18.0543L115.262 9.87627ZM120.676 17.2652L122.463 16.4696L118.822 8.29152L117.035 9.0871L120.676 17.2652ZM130.067 12.6244L129.266 10.8266C128.809 11.5689 128.339 12.1065 127.527 12.4677C126.135 13.0876 124.472 12.5672 123.769 10.9886C123.061 9.39899 123.797 7.8365 125.19 7.21663C126.001 6.85545 126.7 6.83306 127.553 6.97871L126.762 5.20278C126.045 5.15451 125.209 5.22451 124.266 5.64426C121.997 6.6546 120.813 9.2177 121.96 11.7939C123.107 14.3701 125.804 15.2054 128.073 14.1951C129.016 13.7753 129.616 13.2059 130.067 12.6244ZM138.92 9.14241L132.177 2.34563L130.116 3.26323L130.698 12.803L132.562 11.9733L132.375 9.66574L135.434 8.30399L137.045 9.97704L138.92 9.14241ZM131.976 4.66806L134.275 7.05953L132.214 7.97712L131.976 4.66806Z" fill="#4411CD"/>
<path d="M146.729 -1.47826C151.918 -3.78851 152.017 -8.50865 150.626 -11.6309C152.017 -8.50865 155.59 -5.4234 160.779 -7.73365C155.59 -5.4234 155.492 -0.703187 156.882 2.41896C155.492 -0.703187 151.918 -3.78851 146.729 -1.47826" stroke="#4411CD" stroke-width="1.23036" stroke-linecap="round" stroke-linejoin="round"/>
</g>
<defs>
<linearGradient id="paint0_linear" x1="-258.759" y1="112.259" x2="-258.332" y2="162.35" gradientUnits="userSpaceOnUse">
<stop stop-color="#26C4FD"/>
<stop offset="1" stop-color="#4411CD"/>
</linearGradient>
<linearGradient id="paint1_linear" x1="-138.012" y1="156.166" x2="-130.026" y2="204.831" gradientUnits="userSpaceOnUse">
<stop stop-color="#ED7A15"/>
<stop offset="1" stop-color="#FFE556"/>
</linearGradient>
</defs>
</svg>
