<svg width="128" height="128" viewBox="0 0 128 128" fill="none" xmlns="http://www.w3.org/2000/svg">
<g clip-path="url(#clip0_5536_1027)">
<rect width="128" height="128" fill="white"/>
<rect x="32.1527" y="0.347656" width="100.983" height="100.983" rx="18.8801" transform="rotate(18.5124 32.1527 0.347656)" fill="#FFE0EB"/>
<g opacity="0.6" filter="url(#filter0_f_5536_1027)">
<path d="M116.295 16.4824L103.96 112.309L43.2322 104.492L55.5676 8.66512L93.2186 13.5118L116.295 16.4824Z" fill="#FF4C88" fill-opacity="0.4"/>
</g>
<rect x="40.9521" y="98.4683" width="89.19" height="59.2396" rx="8.48953" transform="rotate(-82.773 40.9521 98.4683)" fill="url(#paint0_linear_5536_1027)"/>
<path d="M51.1763 85.5041C46.5261 84.9144 43.2338 80.6674 43.8218 76.017L51.1062 18.4088C51.6945 13.756 55.9441 10.4617 60.5966 11.0517L102.521 16.3682C107.172 16.9579 110.464 21.2048 109.876 25.8552L102.592 83.4634C102.003 88.1162 97.7536 91.4105 93.1011 90.8205L51.1763 85.5041Z" fill="#ECECEC"/>
<path d="M100.938 96.9129L106.216 55.917C77.7438 68.4141 60.0834 75.3517 41.1977 97.7855L91.4343 104.249C96.0843 104.847 100.339 101.563 100.938 96.9129Z" fill="url(#paint1_radial_5536_1027)"/>
<ellipse cx="80.7711" cy="88.9609" rx="6.48008" ry="6.48006" transform="rotate(7.33521 80.7711 88.9609)" fill="#E50014"/>
<ellipse cx="88.2688" cy="89.9233" rx="6.48008" ry="6.48006" transform="rotate(7.33521 88.2688 89.9233)" fill="#FFB800"/>
<path d="M83.8455 94.6631C85.6176 93.7052 86.9189 91.9374 87.1957 89.7869C87.4725 87.6364 86.6614 85.5967 85.1897 84.2212C83.4176 85.1791 82.1163 86.9469 81.8395 89.0974C81.5627 91.2479 82.3738 93.2876 83.8455 94.6631Z" fill="#EB6300"/>
<rect x="86.8776" y="27.0386" width="12.9601" height="11.6641" rx="2.2663" transform="rotate(97.3352 86.8776 27.0386)" fill="#F8F8F8"/>
<path d="M65.3067 78.1763C63.7918 77.1663 63.9651 76.4262 64.4883 72.3643C64.7514 70.3209 63.7015 69.5548 62.5716 69.4093C61.3897 69.2571 60.6837 69.8763 60.1769 70.3675C60.0572 70.483 59.996 70.5545 59.8929 70.5412C59.7898 70.5279 59.7232 70.44 59.6442 70.2457C59.2885 69.3555 58.6156 68.904 57.8453 68.8048C56.0473 68.5732 55.5335 69.9265 55.2737 69.8931C55.1961 69.8831 55.1772 69.8283 55.1905 69.7253L55.2838 69.001C55.3438 68.5347 55.1326 68.3496 54.6502 68.4456L53.2558 68.7389C52.9597 68.8055 52.7432 69.0672 52.6932 69.4552L51.8703 75.8445C51.8275 76.1768 52.0288 76.4434 53.0044 76.569C54.0576 76.7047 54.3185 76.5018 54.3618 76.1654L54.7051 73.5007C54.9582 71.5354 55.4077 70.8831 56.1781 70.9823C56.9748 71.0849 57.1924 71.8231 56.9393 73.7885L56.5961 76.4532C56.5533 76.7855 56.8312 77.0619 57.8077 77.1877C58.809 77.3166 59.0443 77.1105 59.0876 76.7741L59.4308 74.1094C59.6839 72.1441 60.1335 71.4918 60.9286 71.5942C61.7236 71.6966 61.9429 72.435 61.6898 74.4003L61.5498 75.4868C61.2799 77.5825 62.36 78.7206 63.8239 78.9092C64.5661 79.0048 65.3311 78.7613 65.3778 78.3991C65.3894 78.3591 65.3889 78.3164 65.3762 78.2767C65.3636 78.237 65.3393 78.202 65.3067 78.1763Z" fill="#FD9CBF"/>
<g opacity="0.6" filter="url(#filter1_f_5536_1027)">
<path d="M77.8118 21.6377L89.6341 114.519L28.8956 122.25L17.0733 29.3687L54.7312 24.5755L77.8118 21.6377Z" fill="#FF4C88" fill-opacity="0.4"/>
</g>
<rect x="25.5491" y="119.958" width="89.19" height="59.2396" rx="8.48953" transform="rotate(-97.362 25.5491 119.958)" fill="url(#paint2_linear_5536_1027)"/>
<path d="M32.1781 104.837C27.5293 105.438 23.2734 102.157 22.6712 97.5082L15.2101 39.9226C14.6075 35.2716 17.8903 31.0132 22.5415 30.4122L64.4536 24.9971C69.1024 24.3965 73.3583 27.6772 73.9606 32.3258L81.4216 89.9114C82.0242 94.5623 78.7415 98.8208 74.0903 99.4218L32.1781 104.837Z" fill="#ECECEC"/>
<path d="M83.2086 103.343L77.9905 62.3394C53.5843 81.6052 38.2408 92.7675 25.6147 119.235L75.8595 112.836C80.5103 112.244 83.8005 107.994 83.2086 103.343Z" fill="url(#paint3_radial_5536_1027)"/>
<ellipse cx="61.6895" cy="100.727" rx="6.48008" ry="6.48006" transform="rotate(-7.25377 61.6895 100.727)" fill="#E50014"/>
<ellipse cx="69.1878" cy="99.7701" rx="6.48008" ry="6.48006" transform="rotate(-7.25377 69.1878 99.7701)" fill="#FFB800"/>
<path d="M66.1012 105.471C67.5748 104.098 68.3888 102.059 68.1151 99.9082C67.8413 97.7573 66.5426 95.9876 64.7718 95.0272C63.2982 96.4006 62.4842 98.4392 62.7579 100.59C63.0317 102.741 64.3304 104.511 66.1012 105.471Z" fill="#EB6300"/>
<rect x="52.0018" y="39.2632" width="12.9601" height="11.6641" rx="2.2663" transform="rotate(82.7462 52.0018 39.2632)" fill="#F8F8F8"/>
<path d="M44.0075 94.1856C42.2871 93.5897 42.2684 92.8297 41.7515 88.767C41.4915 86.7232 40.2825 86.2464 39.1523 86.3902C37.9702 86.5405 37.4429 87.3176 37.0762 87.9207C36.9895 88.0625 36.9483 88.1472 36.8451 88.1603C36.742 88.1734 36.6554 88.105 36.5301 87.9369C35.9616 87.165 35.1966 86.8976 34.4262 86.9956C32.6279 87.2244 32.4714 88.6635 32.2116 88.6965C32.1341 88.7064 32.1019 88.6581 32.0888 88.5551L31.9967 87.8306C31.9373 87.3643 31.6863 87.2383 31.2436 87.4528L29.9681 88.0878C29.6983 88.2269 29.5547 88.5347 29.6041 88.9227L30.417 95.3133C30.4593 95.6457 30.7212 95.853 31.6971 95.7288C32.7505 95.5948 32.9519 95.3328 32.9091 94.9963L32.57 92.3311C32.3199 90.3654 32.5907 89.6209 33.3612 89.5229C34.158 89.4215 34.5546 90.0811 34.8047 92.0468L35.1437 94.712C35.186 95.0444 35.5246 95.2419 36.5013 95.1177C37.5028 94.9903 37.6786 94.7315 37.6358 94.395L37.2967 91.7298C37.0467 89.7641 37.3174 89.0196 38.1126 88.9184C38.9078 88.8173 39.3061 89.4766 39.5561 91.4423L39.6944 92.5291C39.961 94.6252 41.2929 95.4545 42.7571 95.2683C43.4995 95.1738 44.1785 94.7455 44.1324 94.3833C44.1336 94.3416 44.1224 94.3004 44.1001 94.2652C44.0778 94.2299 44.0456 94.2022 44.0075 94.1856Z" fill="#FD9CBF"/>
</g>
<defs>
<filter id="filter0_f_5536_1027" x="30.3718" y="-4.19538" width="98.7837" height="129.365" filterUnits="userSpaceOnUse" color-interpolation-filters="sRGB">
<feFlood flood-opacity="0" result="BackgroundImageFix"/>
<feBlend mode="normal" in="SourceGraphic" in2="BackgroundImageFix" result="shape"/>
<feGaussianBlur stdDeviation="6.43021" result="effect1_foregroundBlur_5536_1027"/>
</filter>
<filter id="filter1_f_5536_1027" x="4.21294" y="8.77728" width="98.2815" height="126.333" filterUnits="userSpaceOnUse" color-interpolation-filters="sRGB">
<feFlood flood-opacity="0" result="BackgroundImageFix"/>
<feBlend mode="normal" in="SourceGraphic" in2="BackgroundImageFix" result="shape"/>
<feGaussianBlur stdDeviation="6.43021" result="effect1_foregroundBlur_5536_1027"/>
</filter>
<linearGradient id="paint0_linear_5536_1027" x1="50.1903" y1="202.331" x2="58.6457" y2="92.0252" gradientUnits="userSpaceOnUse">
<stop stop-color="#FDB9D2"/>
<stop offset="1" stop-color="#FD9CBF"/>
</linearGradient>
<radialGradient id="paint1_radial_5536_1027" cx="0" cy="0" r="1" gradientUnits="userSpaceOnUse" gradientTransform="translate(102.223 80.5024) rotate(-172.667) scale(60.5172 49.0518)">
<stop stop-color="white"/>
<stop offset="0.651042" stop-color="white" stop-opacity="0"/>
</radialGradient>
<linearGradient id="paint2_linear_5536_1027" x1="34.7872" y1="223.821" x2="43.2426" y2="113.515" gradientUnits="userSpaceOnUse">
<stop stop-color="#FDB9D2"/>
<stop offset="1" stop-color="#FD9CBF"/>
</linearGradient>
<radialGradient id="paint3_radial_5536_1027" cx="0" cy="0" r="1" gradientUnits="userSpaceOnUse" gradientTransform="translate(80.3187 87.1379) rotate(172.744) scale(60.5172 49.0518)">
<stop stop-color="white"/>
<stop offset="0.651042" stop-color="white" stop-opacity="0"/>
</radialGradient>
<clipPath id="clip0_5536_1027">
<rect width="128" height="128" fill="white"/>
</clipPath>
</defs>
</svg>
