<svg width="88" height="96" viewBox="0 0 88 96" fill="none" xmlns="http://www.w3.org/2000/svg">
<rect width="88" height="96" fill="white"/>
<path fill-rule="evenodd" clip-rule="evenodd" d="M12.692 31.9267C12.692 14.8464 26.5384 1 43.6187 1C60.6991 1 74.5454 14.8464 74.5454 31.9267V79.084H12.692V31.9267ZM62.8814 31.9267C62.8814 21.3946 54.4288 12.8367 43.9373 12.6666L43.6187 12.664C32.9802 12.664 24.356 21.2882 24.356 31.9267V67.42H62.8812L62.8814 31.9267Z" fill="url(#paint0_linear)"/>
<rect x="2" y="39.556" width="83.268" height="56.376" rx="8.424" fill="url(#paint1_linear)"/>
<circle cx="43.7959" cy="62.56" r="6.804" fill="#231653"/>
<path fill-rule="evenodd" clip-rule="evenodd" d="M45.1307 61.9628C44.5785 60.6292 42.6894 60.6292 42.1372 61.9629L35.9754 76.8443C35.5337 77.9109 36.3177 79.084 37.4721 79.084H49.7958C50.9503 79.084 51.7342 77.9109 51.2926 76.8443L45.1307 61.9628Z" fill="#231653"/>
<defs>
<linearGradient id="paint0_linear" x1="72.427" y1="56.5147" x2="72.427" y2="-16.2207" gradientUnits="userSpaceOnUse">
<stop stop-color="#231653"/>
<stop offset="1" stop-color="#4411CD"/>
</linearGradient>
<linearGradient id="paint1_linear" x1="45.0832" y1="249.747" x2="131.299" y2="60.53" gradientUnits="userSpaceOnUse">
<stop stop-color="#FF0055"/>
<stop offset="1" stop-color="#FFD1BC"/>
</linearGradient>
</defs>
</svg>
