<svg width="96" height="80" viewBox="0 0 96 80" fill="none" xmlns="http://www.w3.org/2000/svg">
<path d="M0 41.0908C0 28.9406 9.84974 19.0908 22 19.0908H74C86.1503 19.0908 96 28.9406 96 41.0908V71.0188C96 75.9789 91.979 79.9999 87.0189 79.9999H8.98113C4.02099 79.9999 0 75.9789 0 71.0188V41.0908Z" fill="#FFC1D8"/>
<rect x="21.2305" y="19.0908" width="7.38462" height="60.9091" fill="#FD9CBF"/>
<rect x="67.3848" y="19.0908" width="7.38462" height="60.9091" fill="#FD9CBF"/>
<path fill-rule="evenodd" clip-rule="evenodd" d="M28.6152 19.2111C28.6152 19.211 28.6152 19.211 28.6152 19.211C28.6152 8.60105 37.3486 0 48.1218 0C58.8949 0 67.6283 8.60105 67.6283 19.211C67.6283 19.211 67.6283 19.211 67.6283 19.2111L62.0292 19.211C62.0292 11.6466 55.8027 5.51434 48.1218 5.51434C40.4409 5.51434 34.2144 11.6466 34.2144 19.211C34.2144 19.2111 34.2144 19.2111 34.2144 19.2111H28.6152Z" fill="#2A2A2A"/>
<path fill-rule="evenodd" clip-rule="evenodd" d="M57.9242 43.9611C57.9678 44.0178 58.0123 44.0735 58.0544 44.1304C60.2864 46.8166 64.8671 47.8801 71.7968 47.3208C73.9503 40.5559 74.1197 35.941 72.3018 33.4785C72.2606 33.4208 72.2182 33.3636 72.1746 33.3069C70.3761 30.9702 67.1627 30.3883 64.9972 32.0073C63.6735 32.997 63.0477 34.58 63.1721 36.1949C61.6278 35.6416 59.9124 35.8089 58.5887 36.7986C56.4232 38.4176 56.1257 41.6244 57.9242 43.9611Z" fill="#FD87A4" stroke="white" stroke-width="1.49625"/>
<ellipse rx="7.69028" ry="7.6695" transform="matrix(0.883176 0.469042 -0.48027 0.877121 81.5523 53.0612)" fill="#9AD28B" stroke="white" stroke-width="1.995"/>
<ellipse rx="7.69028" ry="7.6695" transform="matrix(0.883176 0.469042 -0.48027 0.877121 81.5523 53.0612)" fill="#43A496" stroke="white" stroke-width="1.49625"/>
<path d="M80.0882 57.317L80.4917 56.5801C81.6565 56.8699 82.735 56.4681 83.2531 55.522C83.9355 54.2756 83.2132 53.3519 82.4453 52.5331C81.9638 52.019 81.5973 51.5778 81.8214 51.1684C82.0107 50.8227 82.5161 50.7271 83.1073 51.0411C83.7077 51.3599 84.2148 51.9581 84.4299 52.4363L85.212 51.0081C84.979 50.6495 84.5834 50.2398 84.133 49.9301L84.5016 49.2569L83.3007 48.6191L82.8923 49.3651C81.7971 49.1005 80.7897 49.4814 80.3065 50.3639C79.649 51.5647 80.3344 52.4688 81.093 53.2827C81.6158 53.8304 81.968 54.2758 81.724 54.7216C81.4799 55.1674 80.8821 55.2139 80.2355 54.8705C79.5796 54.5222 78.9916 53.8106 78.8157 53.1301L77.9789 54.6584C78.2096 55.0863 78.6535 55.6039 79.256 56.006L78.8874 56.6792L80.0882 57.317Z" fill="white"/>
</svg>
