<svg width="96" height="80" viewBox="0 0 96 80" fill="none" xmlns="http://www.w3.org/2000/svg">
<path d="M0 41.0909C0 28.9407 9.84974 19.0909 22 19.0909H74C86.1503 19.0909 96 28.9406 96 41.0909V71.0189C96 75.979 91.979 80 87.0189 80H8.98113C4.02099 80 0 75.979 0 71.0189V41.0909Z" fill="url(#paint0_linear)"/>
<rect x="21.2307" y="19.0909" width="7.38462" height="60.9091" fill="#FD8B75"/>
<rect x="67.3846" y="19.0909" width="7.38462" height="60.9091" fill="#FD8B75"/>
<path fill-rule="evenodd" clip-rule="evenodd" d="M28.6154 19.2111C28.6154 19.211 28.6154 19.211 28.6154 19.211C28.6154 8.60105 37.3487 0 48.1219 0C58.895 0 67.6284 8.60105 67.6284 19.211C67.6284 19.211 67.6284 19.211 67.6284 19.2111L62.0293 19.211C62.0293 11.6466 55.8028 5.51434 48.1219 5.51434C40.441 5.51434 34.2145 11.6466 34.2145 19.211C34.2145 19.2111 34.2145 19.2111 34.2145 19.2111H28.6154Z" fill="#231952"/>
<path fill-rule="evenodd" clip-rule="evenodd" d="M57.9239 43.9611C57.9675 44.0178 58.012 44.0734 58.0542 44.1303C60.2861 46.8166 64.8669 47.8801 71.7965 47.3207C73.9501 40.5559 74.1194 35.941 72.3015 33.4784C72.2604 33.4208 72.218 33.3636 72.1743 33.3069C70.3759 30.9701 67.1624 30.3883 64.9969 32.0073C63.6732 32.997 63.0475 34.5799 63.1718 36.1948C61.6275 35.6416 59.9122 35.8089 58.5885 36.7985C56.423 38.4175 56.1255 41.6243 57.9239 43.9611Z" fill="#FD87A4" stroke="white" stroke-width="1.49625"/>
<ellipse rx="7.69028" ry="7.6695" transform="matrix(0.883176 0.469042 -0.48027 0.877121 81.5522 53.0614)" fill="url(#paint1_linear)" stroke="white" stroke-width="1.995"/>
<ellipse rx="7.69028" ry="7.6695" transform="matrix(0.883176 0.469042 -0.48027 0.877121 81.5522 53.0614)" fill="#22BF9B" stroke="white" stroke-width="1.49625"/>
<path d="M80.0882 57.3172L80.4917 56.5803C81.6565 56.8702 82.735 56.4683 83.2531 55.5222C83.9355 54.2759 83.2132 53.3521 82.4453 52.5334C81.9638 52.0193 81.5973 51.578 81.8214 51.1686C82.0107 50.823 82.5161 50.7274 83.1073 51.0413C83.7077 51.3602 84.2148 51.9583 84.4299 52.4366L85.212 51.0083C84.979 50.6498 84.5834 50.24 84.133 49.9303L84.5016 49.2571L83.3007 48.6194L82.8923 49.3654C81.7971 49.1008 80.7897 49.4817 80.3065 50.3641C79.649 51.5649 80.3344 52.4691 81.093 53.2829C81.6158 53.8307 81.968 54.2761 81.724 54.7219C81.4799 55.1676 80.8821 55.2142 80.2355 54.8708C79.5796 54.5225 78.9916 53.8109 78.8157 53.1304L77.9789 54.6587C78.2096 55.0865 78.6535 55.6041 79.256 56.0063L78.8874 56.6795L80.0882 57.3172Z" fill="white"/>
<defs>
<linearGradient id="paint0_linear" x1="48" y1="19.0909" x2="48" y2="80" gradientUnits="userSpaceOnUse">
<stop stop-color="#FED0BE"/>
<stop offset="1" stop-color="#FDA691"/>
</linearGradient>
<linearGradient id="paint1_linear" x1="-5.14144" y1="7.14478" x2="5.18888" y2="27.4071" gradientUnits="userSpaceOnUse">
<stop stop-color="#03C6A1"/>
<stop offset="1" stop-color="#6464B0"/>
</linearGradient>
</defs>
</svg>
