<svg xmlns="http://www.w3.org/2000/svg" width="50" height="50" viewBox="0 0 50 50">
    <g fill="none" fill-rule="evenodd">
        <circle cx="24" cy="24" r="24" fill="#16CBAC" stroke="#FFF" stroke-width="1.5" transform="translate(1 1)"/>
        <path fill="#FFF" d="M24.862 37s8.861-4.574 8.861-11.434v-8.28L24.862 15 16 17.287v8.279C16 32.426 24.862 37 24.862 37z"/>
        <g fill="#16CBAC" fill-rule="nonzero">
            <path d="M24.862 29.85c-2.753 0-4.985-2.216-4.985-4.95s2.232-4.95 4.985-4.95c2.752 0 4.984 2.216 4.984 4.95s-2.232 4.95-4.984 4.95zm0-1.1c2.14 0 3.876-1.724 3.876-3.85 0-2.126-1.735-3.85-3.876-3.85-2.142 0-3.877 1.724-3.877 3.85 0 2.126 1.735 3.85 3.877 3.85z"/>
            <path d="M21.147 22.539l6.092 6.05a.557.557 0 0 0 .783 0 .547.547 0 0 0 0-.778l-6.092-6.05a.557.557 0 0 0-.783 0 .547.547 0 0 0 0 .778z"/>
        </g>
    </g>
</svg>
