<svg xmlns="http://www.w3.org/2000/svg" width="34" height="43" viewBox="0 0 34 43">
    <g fill="none" fill-rule="evenodd">
        <path stroke="#2E2E2E" stroke-width="2" d="M17 41s16-8.316 16-20.79V5.159L17 1 1 5.158V20.21C1 32.684 17 41 17 41z"/>
        <path fill="#2E2E2E" fill-rule="nonzero" d="M17.87 12.666c.581-1.03 1.63-1.652 3.137-1.652.442 0 .8.372.8.83 0 .458-.358.829-.8.829-.94 0-1.462.31-1.755.83a1.943 1.943 0 0 0-.23.703c.716.601 1.17 1.564 1.17 2.812.212.152.412.318.599.497l1.01-1.047a.778.778 0 0 1 1.13 0 .848.848 0 0 1 0 1.173l-1.124 1.167c.376.651.63 1.381.736 2.153a.792.792 0 0 1 .056-.002h1.602c.441 0 .799.368.799.829 0 .458-.355.83-.8.83h-1.6c-.02 0-.038-.001-.056-.003a5.906 5.906 0 0 1-.737 2.153l1.125 1.167a.848.848 0 0 1 0 1.172.778.778 0 0 1-1.131 0l-1.01-1.046A5.473 5.473 0 0 1 17 27.593a5.473 5.473 0 0 1-3.79-1.532l-1.01 1.047a.778.778 0 0 1-1.131 0 .848.848 0 0 1 0-1.173l1.124-1.167a5.906 5.906 0 0 1-.737-2.153.792.792 0 0 1-.055.002H9.799A.813.813 0 0 1 9 21.788c0-.458.355-.83.8-.83h1.6c.02 0 .038.001.057.003.106-.772.36-1.502.736-2.153l-1.125-1.167a.848.848 0 0 1 0-1.172.778.778 0 0 1 1.131 0l1.01 1.046c.189-.18.39-.347.603-.5 0-1.25.463-2.22 1.19-2.822a1.957 1.957 0 0 0-.23-.697c-.296-.525-.824-.837-1.771-.837-.442 0-.8-.372-.8-.83 0-.458.358-.829.8-.829 1.514 0 2.569.624 3.152 1.659.16.282.273.576.348.873a3.392 3.392 0 0 1 1.023.003c.076-.295.188-.588.347-.87zm1.36 5.74a5.27 5.27 0 0 1-1.43.425v1.52c.478.287.8.823.8 1.437a1.67 1.67 0 0 1-.8 1.437v2.626a3.912 3.912 0 0 0 1.544-.703 1.263 1.263 0 0 1-.344-.872c0-.687.537-1.244 1.2-1.244.206 0 .4.054.569.148.15-.435.231-.904.231-1.392 0-.024-.26 0-.4 0-.663 0-1.2-.557-1.2-1.244 0-.557.354-1.03.841-1.187a4.08 4.08 0 0 0-.959-.975 5.69 5.69 0 0 1-.053.024zm-.63-1.594c0-.916-.716-1.658-1.6-1.658-.884 0-1.6.742-1.6 1.658 0 .011-.002.028-.006.05l.058.028c.463.212.988.34 1.565.34a3.732 3.732 0 0 0 1.591-.353.437.437 0 0 1-.008-.065zm-4.841 2.545c.487.158.841.63.841 1.187 0 .687-.537 1.244-1.2 1.244-.14 0-.4-.024-.4 0 0 .488.081.957.231 1.392.17-.094.363-.148.569-.148.663 0 1.2.557 1.2 1.244 0 .34-.131.647-.344.872.452.34.976.584 1.544.703v-2.626a1.67 1.67 0 0 1-.8-1.437c0-.614.322-1.15.8-1.437v-1.525a5.27 5.27 0 0 1-1.469-.454 4.08 4.08 0 0 0-.972.985z"/>
    </g>
</svg>
