<svg xmlns="http://www.w3.org/2000/svg" width="256" height="51" viewBox="0 0 256 51">
    <defs>
        <linearGradient id="a" x1="22.919%" x2="68.013%" y1="0%" y2="100%">
            <stop offset="0%" stop-color="#23BCBA"/>
            <stop offset="100%" stop-color="#028090"/>
        </linearGradient>
    </defs>
    <g fill="none" fill-rule="evenodd">
        <path fill="url(#a)" d="M25.612 15.854H36L23.65 50H12.344L0 15.854h10.388L18 39.712l7.612-23.858zM18 0l18 3.67v8.932L18 8.927 0 12.602V3.669L18 0z"/>
        <path fill="#0A1F44" d="M66.349 23.317l-5.465 2.478c-.701-1.543-1.916-3.554-4.764-3.554-2.243 0-3.552 1.356-3.552 3.133 0 5.42 14.202 4.625 14.202 14.766 0 5.747-4.11 9.951-10.93 9.951-7.007 0-9.905-4.905-10.84-7.57l5.558-2.708c.888 2.147 2.711 4.157 5.652 4.157 2.43 0 3.88-1.262 3.88-3.366 0-5.603-14.108-4.672-14.108-15.137 0-5.517 4.02-9.3 10.279-9.3 6.586 0 9.293 4.765 10.088 7.15m11.925 21.775c2.43 0 4.206-1.31 4.206-3.362 0-2.151-1.776-3.413-4.253-3.413-2.474 0-4.203 1.402-4.203 3.413 0 2.006 1.82 3.362 4.25 3.362m-1.216-11.26c2.478 0 4.394.748 5.278 1.356v-1.59c0-2.15-1.585-3.6-4.436-3.6-2.427 0-4.67.795-6.493 1.73l-2.43-4.395c2.196-1.492 5.888-2.895 9.624-2.895 7.848 0 10.185 4.11 10.185 9.581v15.464h-5.702l-.42-1.586c-1.259 1.352-3.128 2.194-5.933 2.194-4.95 0-9.153-3.035-9.153-8.174 0-4.816 3.782-8.085 9.48-8.085zm15.757-3.553h-2.617v-5.232h2.617v-.888c0-6.355 4.25-8.459 9.014-8.459.938 0 1.636.047 2.103.094v5.42c-.14 0-.701-.094-1.258-.094-2.244 0-3.412 1.028-3.412 3.179v.748h4.253v5.232h-4.253v19.205h-6.447V30.279zm55.89-6.962l-5.466 2.478c-.7-1.543-1.916-3.554-4.763-3.554-2.244 0-3.553 1.356-3.553 3.133 0 5.42 14.202 4.625 14.202 14.766 0 5.747-4.11 9.951-10.93 9.951-7.007 0-9.905-4.905-10.84-7.57l5.559-2.708c.888 2.147 2.71 4.157 5.651 4.157 2.43 0 3.88-1.262 3.88-3.366 0-5.603-14.108-4.672-14.108-15.137 0-5.517 4.02-9.3 10.279-9.3 6.586 0 9.294 4.765 10.088 7.15zM167.3 34.678c-.14-2.992-2.29-4.952-5.23-4.952-3.04 0-4.998 2.147-5.283 4.952h10.513zm-46.546 0c-.14-2.992-2.29-4.952-5.231-4.952-3.038 0-4.997 2.147-5.282 4.952h10.513zm41.175-10.212c7.568 0 11.864 5.046 11.864 13.037 0 .468 0 .935-.047 1.403h-17.192c.144 3.272 2.757 5.61 6.352 5.61 3.32 0 5.235-1.964 5.937-2.992l4.25 3.226c-.936 1.726-4.208 5.373-10.28 5.373-7.845 0-12.842-5.424-12.842-12.756 0-7.384 4.997-12.9 11.958-12.9zm-46.546 0c7.568 0 11.864 5.046 11.864 13.037 0 .468 0 .935-.047 1.403H110.01c.144 3.272 2.757 5.61 6.352 5.61 3.32 0 5.235-1.964 5.937-2.992l4.25 3.226c-.936 1.726-4.208 5.373-10.28 5.373-7.845 0-12.842-5.424-12.842-12.756 0-7.384 4.997-12.9 11.958-12.9zm95.955 6.514c-4.81 0-6.586 2.992-6.586 7.85v10.656h-6.447v-24.44h6.306v3.553c1.075-2.431 3.502-4.161 6.727-4.161v6.542zm44.305 4.393v14.112h-6.4v-14.86c0-2.712-1.87-4.391-4.067-4.391-2.707 0-4.436 1.963-4.436 4.578v14.673h-6.446V15.7h6.446v12.195c1.028-1.683 3.272-3.46 6.45-3.46 7.004 0 8.453 5.75 8.453 10.937zm-70.756 9.719c2.43 0 4.206-1.31 4.206-3.362 0-2.151-1.776-3.413-4.253-3.413-2.473 0-4.203 1.402-4.203 3.413 0 2.006 1.82 3.362 4.25 3.362m-1.216-11.26c2.478 0 4.394.748 5.278 1.356v-1.59c0-2.15-1.585-3.6-4.436-3.6-2.427 0-4.67.795-6.493 1.73l-2.43-4.395c2.196-1.492 5.889-2.895 9.624-2.895 7.848 0 10.186 4.11 10.186 9.581v15.464h-5.703l-.42-1.586c-1.259 1.352-3.128 2.194-5.933 2.194-4.95 0-9.157-3.035-9.157-8.174 0-4.816 3.786-8.085 9.484-8.085zm47.156 8.362l1.73 5.28c-1.403 1.122-4.067 2.618-7.616 2.618-7.615 0-13.033-5.326-13.033-12.756 0-7.43 5.559-12.9 12.987-12.9 3.595 0 6.119 1.402 7.708 2.618l-1.823 5.42c-1.075-.982-2.945-2.334-5.699-2.334-4.156 0-6.726 3.222-6.726 7.15 0 4.156 2.898 7.102 6.96 7.102 2.474 0 4.437-1.31 5.512-2.198z"/>
    </g>
</svg>
