<svg id="Layer_1" data-name="Layer 1" xmlns="http://www.w3.org/2000/svg" viewBox="0 0 171.32 20.17"><defs><style>.cls-1{fill:#505050;}.cls-2,.cls-3{fill:none;stroke:#505050;stroke-width:2px;}.cls-3{stroke-linecap:round;stroke-linejoin:round;}</style></defs><title>safebrowsing</title><path class="cls-1" d="M61.11,10.2a6.93,6.93,0,0,1,3.14,1L65.35,9a7.75,7.75,0,0,0-4.11-1.19,4.68,4.68,0,0,0-2.92.88,2.93,2.93,0,0,0-1.13,2.43,2.56,2.56,0,0,0,.5,1.63,3.23,3.23,0,0,0,1.18.93,14.77,14.77,0,0,0,1.72.64,7.13,7.13,0,0,1,1.28.45.64.64,0,0,1,.41.59.48.48,0,0,1-.28.46,1.51,1.51,0,0,1-.76.16,5.13,5.13,0,0,1-1.74-.33,7.09,7.09,0,0,1-1.76-.93l-1,2.17a6.28,6.28,0,0,0,2,1.09,8,8,0,0,0,2.41.37,4.9,4.9,0,0,0,3-.88,2.9,2.9,0,0,0,1.16-2.43,2.57,2.57,0,0,0-.51-1.66,3.16,3.16,0,0,0-1.22-.94,15.25,15.25,0,0,0-1.76-.64,6.69,6.69,0,0,1-1.27-.45.63.63,0,0,1-.41-.55.53.53,0,0,1,.26-.48A1.21,1.21,0,0,1,61.11,10.2Z" transform="translate(-3 -1.96)"/><path class="cls-1" d="M41.7,9.71V8H38.45V18.23H41.7V13a2.22,2.22,0,0,1,.82-1.53,3,3,0,0,1,1.87-.56,4,4,0,0,1,.49,0V7.87A3.63,3.63,0,0,0,43,8.34,3.58,3.58,0,0,0,41.7,9.71Z" transform="translate(-3 -1.96)"/><polygon class="cls-1" points="23.42 5.87 27.22 5.87 27.22 16.27 30.56 16.27 30.56 5.87 34.39 5.87 34.39 3.02 23.42 3.02 23.42 5.87"/><path class="cls-1" d="M84.2,8.93a3.36,3.36,0,0,0-2.6-1.06,3.83,3.83,0,0,0-1.91.46,3.57,3.57,0,0,0-1.36,1.34V8H75.08V18.23h3.25v-5.4a2.29,2.29,0,0,1,.61-1.4,1.82,1.82,0,0,1,1.33-.55,1.56,1.56,0,0,1,1.22.5A2,2,0,0,1,82,12.75v5.48h3.23V11.79a4.07,4.07,0,0,0-1-2.86Z" transform="translate(-3 -1.96)"/><path class="cls-1" d="M95,8.84a4.79,4.79,0,0,0-3.18-1,9.32,9.32,0,0,0-2.29.28A11.82,11.82,0,0,0,87.24,9l.9,2.27a7.77,7.77,0,0,1,1.56-.61,5.34,5.34,0,0,1,1.39-.21,2.18,2.18,0,0,1,1.4.4A1.38,1.38,0,0,1,93,12v.12H90.4a4.33,4.33,0,0,0-2.8.83,2.8,2.8,0,0,0-1,2.27,3.1,3.1,0,0,0,.9,2.32,3.45,3.45,0,0,0,2.48.88,3.48,3.48,0,0,0,3-1.31v1.15h3.2V11.58A3.47,3.47,0,0,0,95,8.85Zm-2,5.93a1.6,1.6,0,0,1-.69,1A2.29,2.29,0,0,1,91,16.1a1.49,1.49,0,0,1-1-.31,1.09,1.09,0,0,1-.35-.84c0-.71.45-1.06,1.37-1.06H93Z" transform="translate(-3 -1.96)"/><path class="cls-1" d="M71.65,15.66c-.57,0-.86-.36-.86-1.07V10.73h2.56V8.5H70.79V5.66H67.56V8.5H66.19v2.23h1.37v4.38a3.19,3.19,0,0,0,.9,2.41,3.28,3.28,0,0,0,2.37.87,5.92,5.92,0,0,0,1.44-.18,5.26,5.26,0,0,0,1.26-.5l-.62-2.39A3.06,3.06,0,0,1,71.65,15.66Z" transform="translate(-3 -1.96)"/><polygon class="cls-1" points="99.3 13.15 97.24 6.04 93.9 6.04 97.58 16.27 100.93 16.27 104.63 6.04 101.38 6.04 99.3 13.15"/><path class="cls-1" d="M52.69,13.05a2.62,2.62,0,0,1-.49,1.66,1.67,1.67,0,0,1-1.35.65,1.44,1.44,0,0,1-1.16-.49,2,2,0,0,1-.43-1.36V8H46v6.46a4.11,4.11,0,0,0,1,2.85,3.28,3.28,0,0,0,2.56,1.07,3.45,3.45,0,0,0,3.16-1.82v1.66h3.25V8H52.69Z" transform="translate(-3 -1.96)"/><path class="cls-2" d="M11,21s7-3.74,7-9.35V4.87L11,3,4,4.87v6.78C4,17.26,11,21,11,21Z" transform="translate(-3 -1.96)"/><path class="cls-3" d="M13.84,9,10,13,8.28,11.17" transform="translate(-3 -1.96)"/><path class="cls-1" d="M110.92,17.56l.48-.91a4,4,0,0,0,2.23.66c1.07,0,1.51-.32,1.51-.86,0-1.43-4-.19-4-2.72,0-1.14,1-1.91,2.65-1.91a4.63,4.63,0,0,1,2.32.57l-.49.92a3.27,3.27,0,0,0-1.84-.51c-1,0-1.5.37-1.5.88,0,1.5,4,.27,4,2.74,0,1.16-1.05,1.89-2.74,1.89A4.59,4.59,0,0,1,110.92,17.56Z" transform="translate(-3 -1.96)"/><path class="cls-1" d="M122.77,14.4v3.84h-1.09V17.4a2.37,2.37,0,0,1-2.09.91c-1.44,0-2.35-.77-2.35-1.87s.66-1.86,2.56-1.86h1.82v-.23c0-1-.56-1.54-1.7-1.54a3.22,3.22,0,0,0-2,.69l-.48-.87a4.29,4.29,0,0,1,2.63-.81C121.79,11.82,122.77,12.66,122.77,14.4Zm-1.15,1.89V15.4h-1.77c-1.14,0-1.47.45-1.47,1s.53,1,1.41,1A1.85,1.85,0,0,0,121.62,16.29Z" transform="translate(-3 -1.96)"/><path class="cls-1" d="M126.21,11.33v.55h1.84v.95h-1.82v5.41h-1.15V12.83H124v-.95h1.08v-.57a1.91,1.91,0,0,1,2.1-2.05,2.08,2.08,0,0,1,1.29.38l-.35.87a1.48,1.48,0,0,0-.88-.3C126.55,10.21,126.21,10.6,126.21,11.33Z" transform="translate(-3 -1.96)"/><path class="cls-1" d="M134.77,15.44h-5.15a2.14,2.14,0,0,0,2.3,1.86,2.34,2.34,0,0,0,1.83-.77l.64.75a3.47,3.47,0,0,1-5.93-2.22,3.11,3.11,0,0,1,3.19-3.24,3.07,3.07,0,0,1,3.15,3.27C134.8,15.19,134.78,15.33,134.77,15.44Zm-5.15-.83h4.07a2,2,0,0,0-4.07,0Z" transform="translate(-3 -1.96)"/><path class="cls-1" d="M135.59,17.56l.48-.91a4,4,0,0,0,2.23.66c1.07,0,1.51-.32,1.51-.86,0-1.43-4-.19-4-2.72,0-1.14,1-1.91,2.65-1.91a4.62,4.62,0,0,1,2.31.57l-.49.92a3.27,3.27,0,0,0-1.84-.51c-1,0-1.5.37-1.5.88,0,1.5,4,.27,4,2.74,0,1.16-1.05,1.89-2.74,1.89A4.59,4.59,0,0,1,135.59,17.56Z" transform="translate(-3 -1.96)"/><path class="cls-1" d="M148.13,15.44H143a2.14,2.14,0,0,0,2.3,1.86,2.37,2.37,0,0,0,1.84-.77l.63.75a3.46,3.46,0,0,1-5.92-2.22A3.11,3.11,0,0,1,145,11.82a3.07,3.07,0,0,1,3.14,3.27C148.15,15.19,148.14,15.33,148.13,15.44ZM143,14.61h4.08a2.05,2.05,0,0,0-4.08,0Z" transform="translate(-3 -1.96)"/><path class="cls-1" d="M154.61,14.4v3.84h-1.09V17.4a2.38,2.38,0,0,1-2.09.91c-1.44,0-2.35-.77-2.35-1.87s.66-1.86,2.55-1.86h1.83v-.23c0-1-.57-1.54-1.71-1.54a3.21,3.21,0,0,0-2,.69l-.48-.87a4.29,4.29,0,0,1,2.63-.81C153.62,11.82,154.61,12.66,154.61,14.4Zm-1.15,1.89V15.4h-1.78c-1.14,0-1.46.45-1.46,1s.53,1,1.4,1A1.85,1.85,0,0,0,153.46,16.29Z" transform="translate(-3 -1.96)"/><path class="cls-1" d="M160.17,11.82v1.11h-.27a1.9,1.9,0,0,0-2,2.15v3.17h-1.15V11.88h1.1V13A2.42,2.42,0,0,1,160.17,11.82Z" transform="translate(-3 -1.96)"/><path class="cls-1" d="M160.94,15.06a3.17,3.17,0,0,1,3.35-3.24,2.84,2.84,0,0,1,2.59,1.35l-.87.57a2,2,0,0,0-1.73-.91,2.1,2.1,0,0,0-2.18,2.23,2.1,2.1,0,0,0,2.18,2.24,2,2,0,0,0,1.73-.91l.87.55a2.84,2.84,0,0,1-2.59,1.37A3.18,3.18,0,0,1,160.94,15.06Z" transform="translate(-3 -1.96)"/><path class="cls-1" d="M174.32,14.58v3.66h-1.15V14.71c0-1.25-.62-1.86-1.71-1.86a1.89,1.89,0,0,0-2,2.11v3.28h-1.15V9.34h1.15v3.44a2.76,2.76,0,0,1,2.24-1A2.46,2.46,0,0,1,174.32,14.58Z" transform="translate(-3 -1.96)"/></svg>