<?xml version="1.0" encoding="UTF-8"?>
<svg width="24px" height="24px" viewBox="0 0 24 24" version="1.1" xmlns="http://www.w3.org/2000/svg" xmlns:xlink="http://www.w3.org/1999/xlink">
    <!-- Generator: sketchtool 49.3 (51167) - http://www.bohemiancoding.com/sketch -->
    <title>C1666604-6099-4BE4-95D4-9419E0A36686</title>
    <desc>Created with sketchtool.</desc>
    <defs></defs>
    <g id="Page-1" stroke="none" stroke-width="1" fill="none" fill-rule="evenodd">
        <g id="Somente-cashback-(não-rastreado)" transform="translate(-470.000000, -368.000000)" fill="#FFFFFF">
            <g id="icon-facebook" transform="translate(470.000000, 368.000000)">
                <rect id="area" fill-opacity="0.01" transform="translate(12.000000, 12.000000) scale(1, -1) translate(-12.000000, -12.000000) " x="0" y="0" width="24" height="24"></rect>
                <path d="M4,20 L20,20 L20,4 L4,4 L4,20 Z M14,12 L16,12 L16,14 L14,14 L14,20 L12,20 L12,14 L10,14 L10,12 L12,12 L12,10.0085302 C12,8.34934676 13.3456457,7 15.0048815,7 L18,7 L18,9 L15.0048815,9 C14.4514468,9 14,9.45268843 14,10.0085302 L14,12 L14,12 Z M2,3.99079514 C2,2.89130934 2.89821238,2 3.99079514,2 L20.0092049,2 C21.1086907,2 22,2.89821238 22,3.99079514 L22,20.0092049 C22,21.1086907 21.1017876,22 20.0092049,22 L3.99079514,22 C2.89130934,22 2,21.1017876 2,20.0092049 L2,3.99079514 Z" id="shape" fill-rule="nonzero"></path>
            </g>
        </g>
    </g>
</svg>