<?xml version="1.0" encoding="UTF-8"?>
<svg width="24px" height="24px" viewBox="0 0 24 24" version="1.1" xmlns="http://www.w3.org/2000/svg" xmlns:xlink="http://www.w3.org/1999/xlink">
    <!-- Generator: sketchtool 49.3 (51167) - http://www.bohemiancoding.com/sketch -->
    <title>0B777199-8665-4549-9673-C0A35C3FB054</title>
    <desc>Created with sketchtool.</desc>
    <defs></defs>
    <g id="Page-1" stroke="none" stroke-width="1" fill="none" fill-rule="evenodd">
        <g id="Somente-cashback-(não-rastreado)" transform="translate(-596.000000, -368.000000)" fill="#FFFFFF">
            <g id="icon-twitter" transform="translate(596.000000, 368.000000)">
                <rect id="area" fill-opacity="0.01" transform="translate(12.000000, 12.000000) scale(1, -1) translate(-12.000000, -12.000000) " x="0" y="0" width="24" height="24"></rect>
                <path d="M22.4535793,6.81761117 C22.6995762,7.50199975 22.8410705,8.25737028 22.8586258,9.0637509 C22.7881043,16.2076313 16.9746248,22 9.86545152,22 C6.53313568,22 3.80660344,20.7807652 2.0882975,18.6382784 L1,17.281324 L2.72514093,17.0311366 C4.23376677,16.8123492 5.26229201,16.503538 6.11494738,16.0330594 C4.35554465,14.6032454 3.19644671,12.5325234 3.20584607,9.98451296 C3.21408266,7.7517072 3.67890932,5.88130582 4.99996879,3.58024164 L5.90719823,2 L6.7533739,3.61351778 C7.9775919,5.9479001 9.67279218,7.48530995 11.8653618,7.93176591 C11.9263621,5.39407042 14.4447642,3.07885944 17.3151789,3.07885944 C18.4754949,3.07885944 19.5317316,3.43056307 20.4037438,4.05161692 L21.5870451,2.87261225 L24,5.27680563 L22.4535793,6.81761117 L22.4535793,6.81761117 Z M5,18.6002474 C6.2803281,19.5001608 7.95581488,20 9.942498,20 C15.9853668,20 20.9396848,15.0713405 21,9.02183044 C20.947394,6.62512644 19.4238229,5 17.4349124,5 C15.5841997,5 13.9471004,6.53360548 13.9632594,7.98895498 L13.9588467,8.09424406 C13.9521762,8.16434224 13.9521762,8.24463216 13.9583657,8.56417527 C13.9617699,8.73992746 13.9633207,8.86014414 13.9633207,9 L13.9633207,10.0459768 L12.9129603,9.99899055 C9.99286076,9.86836439 7.69287401,8.41255439 6.01049034,6.06156455 C5.46259108,7.37117318 5.2602378,8.55950046 5.25513076,9.94178583 C5.2465625,12.2608919 6.55054598,14.0636988 8.43052212,15.1315942 L9.67815925,15.8402978 L8.58133415,16.7634345 C7.56982368,17.6147666 6.49015212,18.1995962 5,18.6002474 Z" id="shape" fill-rule="nonzero"></path>
            </g>
        </g>
    </g>
</svg>