<svg width="16" height="16" viewBox="0 0 16 16" fill="none" xmlns="http://www.w3.org/2000/svg">
<path fill-rule="evenodd" clip-rule="evenodd" d="M14.6673 6.66658H13.158C13.0033 6.06592 12.7507 5.50458 12.41 5.00459L13.422 3.99259L12.008 2.57859L10.996 3.59058C10.4967 3.24992 9.93465 2.99859 9.33398 2.84192V1.33325H6.66732V2.84192C6.06665 2.99859 5.50465 3.24992 5.00532 3.58992L3.99332 2.57859L2.57932 3.99259L3.59132 5.00459C3.25065 5.50392 2.99798 6.06525 2.84332 6.66658H1.33398V9.33325H2.84332C2.99798 9.93525 3.25065 10.4959 3.59132 10.9953L2.57932 12.0073L3.99332 13.4219L5.00532 12.4099C5.50465 12.7499 6.06665 13.0019 6.66732 13.1579V14.6666H9.33398V13.1579C9.93465 13.0026 10.4967 12.7499 10.996 12.4099L12.008 13.4219L13.422 12.0073L12.41 10.9953C12.7507 10.4959 13.0033 9.93525 13.158 9.33325H14.6673V6.66658ZM8.00064 11.9999C5.79464 11.9999 4.00064 10.2066 4.00064 7.99992C4.00064 5.79392 5.79464 3.99992 8.00064 3.99992C10.2066 3.99992 12.0006 5.79392 12.0006 7.99992C12.0006 10.2059 10.2066 11.9999 8.00064 11.9999ZM8.00064 9.99992C9.10521 9.99992 10.0006 9.10449 10.0006 7.99992C10.0006 6.89535 9.10521 5.99992 8.00064 5.99992C6.89607 5.99992 6.00064 6.89535 6.00064 7.99992C6.00064 9.10449 6.89607 9.99992 8.00064 9.99992Z" fill="#767676"/>
</svg>
