<svg width="40" height="40" viewBox="0 0 40 40" fill="none" xmlns="http://www.w3.org/2000/svg">
<path d="M20 4.5C11.4375 4.5 4.5 11.5 4.5 20C4.5 28.5625 11.4375 35.5 20 35.5C28.5 35.5 35.5 28.5625 35.5 20C35.5 11.5 28.5 4.5 20 4.5ZM20 32.5C13.0625 32.5 7.5 26.9375 7.5 20C7.5 13.125 13.0625 7.5 20 7.5C26.875 7.5 32.5 13.125 32.5 20C32.5 26.9375 26.875 32.5 20 32.5ZM20 11.375C18.5 11.375 17.375 12.5625 17.375 14C17.375 15.5 18.5 16.625 20 16.625C21.4375 16.625 22.625 15.5 22.625 14C22.625 12.5625 21.4375 11.375 20 11.375ZM23.5 27.25V25.75C23.5 25.375 23.125 25 22.75 25H22V18.75C22 18.375 21.625 18 21.25 18H17.25C16.8125 18 16.5 18.375 16.5 18.75V20.25C16.5 20.6875 16.8125 21 17.25 21H18V25H17.25C16.8125 25 16.5 25.375 16.5 25.75V27.25C16.5 27.6875 16.8125 28 17.25 28H22.75C23.125 28 23.5 27.6875 23.5 27.25Z" fill="#2A2A2A"/>
</svg>
