<?xml version="1.0" encoding="UTF-8"?>
<svg width="24px" height="24px" viewBox="0 0 24 24" version="1.1" xmlns="http://www.w3.org/2000/svg" xmlns:xlink="http://www.w3.org/1999/xlink">
    <!-- Generator: sketchtool 59.1 (101010) - https://sketch.com -->
    <title>E2C4097D-18C8-4E9F-B4C6-9F86824BC8E7</title>
    <desc>Created with sketchtool.</desc>
    <g id="Opção-A---Popup" stroke="none" stroke-width="1" fill="none" fill-rule="evenodd">
        <g id="A---Fluxo" transform="translate(-1411.000000, -616.000000)" fill="#F34986" fill-rule="nonzero">
            <g id="Group-10" transform="translate(1385.000000, 100.000000)">
                <g id="Group-3" transform="translate(24.000000, 516.000000)">
                    <g id="Group-2" transform="translate(2.000000, 0.000000)">
                        <g id="close-circle">
                            <path d="M12.042,2 C17.556,2 22.042,6.486 22.042,12 C22.042,17.514 17.556,22 12.042,22 C6.528,22 2.042,17.514 2.042,12 C2.042,6.486 6.528,2 12.042,2 Z M12.042,4 C7.631,4 4.042,7.589 4.042,12 C4.042,16.411 7.631,20 12.042,20 C16.453,20 20.042,16.411 20.042,12 C20.042,7.589 16.453,4 12.042,4 Z M15.334,7.293 L16.749,8.707 L13.456,12 L16.749,15.293 L15.334,16.707 L12.042,13.415 L8.749,16.707 L7.334,15.293 L10.627,12 L7.334,8.707 L8.749,7.293 L12.042,10.586 L15.334,7.293 Z" id="Shape"></path>
                        </g>
                    </g>
                </g>
            </g>
        </g>
    </g>
</svg>